<?xml version="1.0" encoding="UTF-8"?><svg id="a" xmlns="http://www.w3.org/2000/svg" viewBox="0 0 1920 1080"><defs><style>.b{fill:#231f20;}</style></defs><path class="b" d="M400.323944301,304.423360041c-2.028110312-7.485661645-5.069204973-14.503023268-9.122570109-21.052798739-4.057648368-6.549775472-8.852726499-12.240762944-14.386662134-17.076531777-5.536791124-4.831485601-11.776032281-8.654983958-18.713440241-11.461928607-6.94097732-2.806944649-14.30956396-4.210416973-22.105759919-4.210416973-10.760192445,0-20.351062577,2.419312161-28.771896524,7.251511634-8.421547819,4.835768833-15.479600145,11.227778596-21.169873745,19.181740264-5.694556832,7.953247796-10.059170155,16.9587429-13.100264815,27.017913055-3.040380788,10.058456283-4.560928119,20.391039408-4.560928119,30.994180017,0,11.228492468,1.596931633,21.754534902,4.79507813,31.579555045,3.194577137,9.825020143,7.756219128,18.362929096,13.6842121,25.61444073,5.925137484,7.251511634,13.099550943,12.982475938,21.521098762,17.192892911,8.420833947,4.211130845,17.77826794,6.316339332,28.070874234,6.316339332,8.106730273,0,15.708753052-1.480570499,22.806782209-4.444566985,7.094459797-2.960427126,13.410799129-6.860309786,18.947590253-11.696078619,5.533935636-4.832199473,10.212652632-10.4096813,14.035437117-16.72530676,3.819928997-6.316339332,6.432700466-12.825424101,7.836886662-19.532251409h2.806944649l-.701736162,51.4623176h-2.807658521c-1.871058475-2.649892812-3.822784485-5.065635613-5.848039309-7.251511634-2.028110312-2.182306661-3.431582637-3.2745308-4.210416973-3.2745308-.314103674,0-1.717575998.818097296-4.210416974,2.455719632-2.496410335,1.637622336-6.082189321,3.432296509-10.760192445,5.380453159-4.678716996,1.95172601-10.373273829,3.665732648-17.076531777,5.146303147-6.706827309,1.479856627-14.426638965,2.222283492-23.158007226,2.222283492-14.503023268,0-27.602574211-2.065231656-39.29865283-6.199264327-11.696078619-4.129749439-21.638173768-9.977788748-29.825571576-17.544117928-8.186683936-7.562045948-14.466615797-16.608231755-18.830515247-27.13498806-4.36746881-10.526042434-6.549775472-22.105046047-6.549775472-34.737010839,0-2.806944649.193459308-6.001521786.584661157-9.590870132.387632488-3.585778986,1.089368651-7.404994111,2.105208487-11.461928607,1.012984348-4.053365137,2.416456673-8.304472813,4.211130845-12.749039798,1.790390941-4.444566985,4.093341968-8.925541441,6.900286617-13.45077596,3.275244672-5.299785624,7.328609808-10.368990597,12.164378642-15.20475943,4.831485601-4.831485601,10.526042434-9.082593278,17.075817905-12.748325926,6.549775472-3.66287716,13.954769583-6.586896815,22.222834925-8.772058964,8.26378211-2.182306661,17.544117928-3.275244672,27.836724223-3.275244672,9.356720121,0,17.544117928.858787999,24.561479551,2.57350851,7.017361623,1.717575998,12.865400932,3.589348346,17.544117928,5.613889298,4.678716996,2.028824184,8.26378211,3.89988266,10.760192445,5.613889298,2.492840975,1.71828987,3.8963133,2.57350851,4.211130845,2.57350851.310534314,0,.89519547-.351225017,1.75398347-1.052961179.855218639-.701736162,1.791104813-1.556954801,2.806944649-2.572794638,1.012984348-1.012270476,2.065231656-2.182306661,3.158169666-3.508680811,1.089368651-1.323518662,2.105208487-2.690583515,3.04109466-4.09405584h2.572794638v52.398203773l-2.806944649.234150011Z"/><path class="b" d="M579.153873901,367.815906271c-4.678003124,10.60742384-11.034319288,19.807092124-19.064665258,27.603288083-8.033201459,7.799765319-17.390635451,13.801287106-28.070160362,18.011704079-10.683808143,4.210416973-22.028661744,6.31562546-34.035988549,6.31562546-11.853130456,0-23.080909052-2.064517784-33.684763532-6.198550455-10.606709968-4.130463311-19.882762554-9.97850262-27.836010351-17.544117928-7.953961668-7.562045948-14.233179657-16.608231755-18.831229119-27.13498806-4.601618822-10.526756306-6.900286617-22.105759919-6.900286617-34.737010839,0-13.410799129,2.415742801-25.457388893,7.251511634-36.141197036,4.831485601-10.680238783,11.344853602-19.726424589,19.532251409-27.13498806,8.187397808-7.404994111,17.77826794-13.099550943,28.772610396-17.076531777,10.994342457-3.976266962,22.57334607-5.964400443,34.737010839-5.964400443,13.25303342,0,25.146854579,2.338644626,35.672897013,7.017361622,10.526756306,4.678716996,19.452297747,10.957934985,26.784476915,18.830515247,7.327895936,7.876863494,12.942499106,16.959456772,16.842381766,27.252063066,3.8963133,10.292606294,5.848039309,21.052798739,5.848039309,32.281291207,0,12.477768443-2.339358498,24.016795225-7.018075494,34.619935834ZM553.539433171,304.657510053c-2.419312161-9.667968307-6.081475449-18.440027271-10.994342457-26.316176892-4.912153136-7.873294134-11.034319288-14.269587128-18.362215224-19.181740264-7.332179168-4.912153136-15.987163127-7.36858664-25.965665747-7.36858664-10.139123817,0-18.911182781,2.456433504-26.316176892,7.36858664-7.408563471,4.912153136-13.490752792,11.268469299-18.24585409,19.064665258-4.758670659,7.799765319-8.26735147,16.648922458-10.526756306,26.550326904-2.262260324,9.904973806-3.391605806,19.923453258-3.391605806,30.059007715,0,10.606709968,1.246420488,20.818648728,3.742830823,30.643668872,2.492840975,9.824306271,6.198550455,18.47929023,11.111417462,25.964951875,4.912153136,7.485661645,11.070726759,13.490752792,18.47929023,18.011704079,7.405707983,4.525234519,16.02428447,6.783925483,25.848590741,6.783925483,9.825020143,0,18.362929096-2.492840975,25.61444073-7.485661645,7.251511634-4.988537438,13.293010252-11.421951776,18.128779085-19.298101398,4.832199473-7.873294134,8.45795529-16.72530676,10.877267451-26.550326904,2.416456673-9.824306271,3.625755817-19.649326415,3.625755817-29.474346558,0-9.510202598-1.209299144-19.10107273-3.625755817-28.771896524Z"/><path class="b" d="M751.951585219,256.937309404c-3.355198334,2.185876021-5.965114315,5.537504995-7.83617279,10.058456283-.468300023,1.092938011-.899478702,2.887612183-1.286397319,5.380453159-.391201848,2.496410335-.742426865,5.380453159-1.052961179,8.654983958-.314103674,3.275244672-.548253685,6.747518012-.701736162,10.4096813-.157051837,3.665732648-.234150011,7.291488465-.234150011,10.877267451-.157051837,6.706827309-.350511145,14.192488954-.584661157,22.456271064-.234150011,8.268065342-.508276854,17.624785463-.818811168,28.070874234-.157051837,2.963996486-.350511145,6.706827309-.584661157,11.228492468-.234150011,4.524520647-.975863005,9.320312649-2.222283492,14.385948262-1.249989847,5.069204973-3.238123329,10.139123817-5.965114315,15.20475943-2.729846475,5.069918845-6.589752303,9.671537666-11.579003613,13.801287106-4.99282067,4.134032671-11.385544305,7.408563471-19.181740264,9.825020143-7.799765319,2.415742801-17.390635451,3.625755817-28.771896524,3.625755817-11.228492468,0-20.702287594-1.170036185-28.422099251-3.508680811-7.719097785-2.339358498-14.075413948-5.497528164-19.063951386-9.473795126-4.99282067-3.976980834-8.852726499-8.340880285-11.579717485-13.100264815-2.729846475-4.755101299-4.758670659-9.433104423-6.081475449-14.034723245-1.327088022-4.598049462-2.105208487-8.809180307-2.339358498-12.631964792-.234150011-3.819215125-.351225017-6.666850477-.351225017-8.537908953,0-4.364613322.037121343-10.059170155.117075006-17.076531777.077098174-7.017361622.117075006-14.813557582.117075006-23.392157238v-39.532802841c0-2.806944649-.117075006-5.41686063-.350511145-7.83617279-.234150011-2.416456673-.585375029-4.598049462-1.052961179-6.549775472-.467586151-1.94815665-1.169322313-3.46870398-2.105208487-4.561641991-2.185876021-2.649892812-4.875745664-4.561641991-8.070322802-5.730964304-3.198146497-1.170036185-6.823902314-1.988133481-10.877267451-2.456433504v-2.339358498h69.70817169v2.339358498c-2.185162149.314817546-4.524520647.782403697-7.017361623,1.403472324-2.496410335.62535186-4.758670659,1.601214865-6.783925483,2.924019655-2.028110312,1.327088022-3.742830823,3.158169666-5.146303147,5.497528164s-2.185162149,5.303354984-2.338644626,8.88913397c-.157765709,4.056934497-.274126843,7.642713482-.351225017,10.760192445-.080667534,3.121048323-.117075006,6.162142983-.117075006,9.122570109v46.550878336c0,3.589348346.036407471,7.057338454.117075006,10.408967428.077098174,3.355912206.117075006,6.901000489.117075006,10.643831311.153482477,8.26735147,1.403472324,15.789420587,3.742830823,22.57334607s5.613889298,12.554866618,9.824306271,17.309967917c4.211130845,4.759384531,9.357433993,8.421547819,15.438909441,10.994342457,6.082189321,2.57350851,13.019597281,3.859905828,20.8193626,3.859905828,8.88913397,0,16.411203086-1.012270476,22.57334607-3.04109466,6.158573623-2.024540952,11.30487677-4.831485601,15.438909441-8.420833947,4.129749439-3.585778986,7.404994111-7.719811657,9.824306271-12.397814781,2.416456673-4.678716996,4.211130845-9.667968307,5.380453159-14.971323291,1.169322313-5.299785624,1.94815665-10.720215614,2.339358498-16.257720609.386918616-5.533221764.584661157-10.953651753.584661157-16.257006737v-39.766952853c0-3.117478963-.039976831-6.31562546-.117075006-9.590870132-.080667534-3.2745308-.197028668-6.392723635-.350511145-9.356720121-.157765709-2.960427126-.391201848-5.730964304-.701736162-8.304472813-.314817546-2.572794638-.782403697-4.638026293-1.404186196-6.198550455-1.560524161-4.36389945-4.250393805-7.913270965-8.070322802-10.643831311-3.822784485-2.726277115-9.473795126-4.638026293-16.9587429-5.730964304v-2.339358498h58.012093071v2.339358498c-5.770941135.782403697-10.332583126,2.262260324-13.6842121,4.444566985Z"/><path class="b" d="M897.053205096,418.57720158c-1.404186196-1.403472324-2.420026033-2.456433504-3.04109466-3.158169666-.62535186-.701736162-1.327088022-1.52054733-2.105208487-2.455719632-.782403697-.935886174-1.754697342-2.299381667-2.924019655-4.09405584-1.170036185-1.791104813-3.004687189-4.480974456-5.497528164-8.070322802-2.963996486-4.36389945-5.577481827-8.303758941-7.83617279-11.813153625-2.262260324-3.508680811-4.561641991-6.977384791-6.901000489-10.408967428-2.339358498-3.428727149-4.875745664-6.901000489-7.602022779-10.4096813-2.730560346-3.508680811-5.965114315-7.444970942-9.707945138-11.813153625-3.121762195-3.585778986-6.513368-6.93740796-10.175531289-10.058456283-3.665732648-3.117478963-7.525638477-5.065635613-11.579003613-5.848039309-2.964710358-.6217825-5.226970682-.935886174-6.783925483-.935886174-1.403472324,0-3.198146497-.076384303-5.380453159-.234150011v26.433251898c0,7.485661645.077098174,13.801287106.234150011,18.947590253.153482477,4.99282067.310534314,9.280335818.467586151,12.866114804.153482477,3.589348346,1.012984348,6.549775472,2.57350851,8.88913397,1.246420488,2.028110312,3.662163288,4.093341968,7.251511634,6.198550455,3.585778986,2.105208487,8.574316424,3.315221503,14.970609419,3.625755817v2.339358498h-74.854474837v-2.339358498c3.8963133-.621068628,7.639144122-1.556954801,11.228492468-2.806944649,3.585065114-1.246420488,6.392009763-3.117478963,8.420833947-5.613889298.778834337-.935886174,1.403472325-2.339358498,1.871058475-4.211130845.468300023-1.871058475.818811168-3.976266962,1.052961179-6.31562546s.42760932-4.832199473.584661157-7.485661645c.153482477-2.649892812.234150011-5.22268745.234150011-7.719097785,0-2.182306661.036407471-5.146303147.117075006-8.88913397.076384303-3.742830823.153482477-7.83617279.233436139-12.280739775.077098174-4.444566985.117075006-9.006208976.117075006-13.6842121v-59.182129256c0-2.807658521-.039976831-5.651010641-.117075006-8.538622825-.079953662-2.883328952-.233436139-5.613889298-.467586151-8.187397808-.234150011-2.572794638-.624637988-4.912153136-1.169322313-7.017361622-.548253685-2.105208487-1.287111191-3.625755817-2.222283492-4.561641991-2.339358498-2.492840975-4.952843839-4.170440142-7.836886662-5.029228141-2.886898311-.855218639-6.432700466-1.596931633-10.643117439-2.222283492v-2.339358498h9.590870132c5.299785624,0,11.30487677-.036407471,18.011704079-.116361134,6.703257949-.077098174,13.410085257-.117075006,20.117626438-.117075006h16.374081743c10.446088771,0,19.726424589.314103674,27.836724223.935172302,8.106730273.62535186,15.516007616,2.730560346,22.222834925,6.316339332,6.860309786,3.589348346,12.397814781,8.46152465,16.608231755,14.620098274,4.210416973,6.162142983,6.31562546,13.918362111,6.31562546,23.275082232,0,5.770941135-1.052247307,10.957934985-3.157455794,15.555984447-2.105208487,4.601618822-4.912867008,8.654983958-8.421547819,12.16366477-3.508680811,3.508680811-7.602022779,6.513368-12.280739775,9.006208976-4.678716996,2.496410335-9.590870132,4.601618822-14.737173279,6.31562546v.701736162c2.649892812,1.403472324,5.223401322,3.432296509,7.719811657,6.082189321,2.492840975,2.653462172,4.912153136,5.613889298,7.251511634,8.88913397,4.053365137,5.927992972,8.457241418,12.320716607,13.216625949,19.181026392,4.755101299,6.864593017,9.005495104,12.946068466,12.748325926,18.24585409,5.768085647,8.111013505,11.381974945,14.035437117,16.842381766,17.77826794,5.456837461,3.742830823,11.849561096,6.162142983,19.181740264,7.251511634v2.339358498h-47.953636788ZM873.894483997,272.843804996c-3.89988266-6.081475449-9.590870132-10.913674922-17.075817905-14.503023268-3.742830823-1.714006638-7.683404185-2.960427126-11.813153625-3.742830823-4.134032671-.778120465-8.46152465-1.169322313-12.982475938-1.169322313-3.275244672,0-5.928706844.080667534-7.953961668.234150011-2.028110312.157051837-3.588634474.314103674-4.678003124.467586151-.157051837.935886174-.314817546,1.754697342-.468300023,2.456433504-.157051837.701736162-.274126843,1.600500993-.350511145,2.689869643-.080667534,1.092938011-.157051837,2.613485341-.234150011,4.561641991-.079953662,1.95172601-.197028668,4.718693828-.350511145,8.303758941-.157051837,5.461120693-.274126843,11.619694316-.351225017,18.480004102-.079953662,6.863879146-.117075006,13.490752792-.117075006,19.883476426v25.731515736c6.392723635,0,12.35783795-.270557483,17.895342945-.818811168,5.533935636-.544684325,10.877267451-1.674029807,16.023570598-3.392319678,4.98925131-1.556954801,9.276766458-3.662163288,12.865400932-6.31562546,3.585778986-2.649892812,6.50979864-5.650296769,8.772058964-9.006208976,2.259404836-3.351628974,3.937004003-6.977384791,5.029228141-10.877267451,1.089368651-3.8963133,1.637622336-7.953247796,1.637622336-12.16366477,0-7.796195959-1.95172601-14.737173279-5.848039309-20.8193626Z"/><path class="b" d="M1014.479435819,418.57720158v-2.339358498c.468300023,0,1.597645505-.153482477,3.392319678-.467586151,1.790390941-.310534314,3.663591032-.855218639,5.613889298-1.637622336,1.948870522-.778120465,3.663591032-1.871058475,5.147017019-3.2745308,1.480570499-1.404186196,2.222997364-3.194577137,2.222997364-5.380453159,0-1.403472324-.432606424-3.702853991-1.287825063-6.901000489-.859501871-3.194577137-2.068801015-7.094459797-3.626469689-11.696078619-1.559096417-4.598049462-3.355198334-9.707231266-5.379739287-15.321834436-2.02739644-5.613889298-4.210416974-11.461928607-6.5490616-17.544117928h-62.223223917c-2.339358498,5.928706844-4.601618822,11.579003613-6.783925483,16.959456772-2.185876021,5.380453159-4.36746881,10.800883148-6.549775472,16.257720609-3.275244672,8.420833947-4.912153136,14.349540791-4.912153136,17.77826794,0,2.028110312.621068628,3.705709479,1.871058475,5.029228141,1.246420488,1.32637415,2.84335212,2.419312161,4.795792002,3.2745308,1.947442778.858787999,4.053365137,1.484139859,6.31562546,1.871772347,2.258690964.390487976,4.403876282.741712993,6.432700466,1.052247307v2.339358498h-49.825409136v-2.572794638c4.056934497-.468300023,7.522069117-1.557668673,10.4096813-3.275244672,2.884042823-1.714006638,4.561641991-2.884042823,5.029228141-3.508680811,1.089368651-1.089368651,2.884042823-3.662163288,5.380453159-7.719811657,2.492840975-4.053365137,5.533221764-10.058456283,9.122570109-18.011704079,3.275244672-7.328609808,6.93740796-15.673059453,10.994342457-25.029779574,4.053365137-9.356720121,8.223805279-18.983997724,12.514889787-28.88897153,4.287515148-9.901404446,8.537908953-19.883476426,12.74975367-29.941932709,4.20898923-10.059170155,8.186683936-19.452297747,11.928800886-28.18794924l-2.338644626-5.146303147c2.806944649-1.246420488,5.339762455-2.726277115,7.602736651-4.444566985,2.258690964-1.714006638,4.246110573-3.508680811,5.965114315-5.379739287,1.713292766-1.871772347,3.158169666-3.662163288,4.326064235-5.380453159,1.170750057-1.714006638,2.065945528-3.117478963,2.689869643-4.210416973h1.873200091c4.831485601,12.946068466,9.433104423,25.226808242,13.800573234,36.842219326,4.363185579,11.619694316,8.537908953,22.807496081,12.515603659,33.568402398,3.974839218,10.760192445,7.835458918,21.169873745,11.579003613,31.228330028,3.742116951,10.058456283,7.484233901,19.99983756,11.227778596,29.824857704,1.713292766,4.835768833,3.310938271,8.852726499,4.794364258,12.047303636,1.481998243,3.198146497,3.158169666,6.823902314,5.029942013,10.877267451.309820442.624637988,1.012270476,1.717575998,2.105922359,3.2745308,1.087940907,1.560524161,2.532817806,3.158169666,4.326064235,4.795792002,1.791818685,1.636908464,4.014816049,3.081071492,6.667564349,4.327491979,2.649892812,1.249989848,5.768085647,1.95172601,9.357433993,2.105208487v2.806944649h-68.30612711ZM983.837194691,276.82078583c-.936600046,2.028824184-2.304378771,5.226970682-4.094769712,9.590870132-1.793246429,4.36746881-4.016243793,9.670823794-6.666136605,15.906495592-2.654176044,6.239241158-5.578195699,13.297293483-8.772058964,21.169873745-3.198146497,7.876863494-6.666850477,16.414772446-10.4096813,25.61444073h58.246243083c-2.6527483-7.017361622-5.342617943-14.035437117-8.06960893-21.052798739-2.729846474-7.018075494-5.379739287-13.761310274-7.953961668-20.233987572-2.572794638-6.469821809-4.912867008-12.398528653-7.017361622-17.77826794-2.104494615-5.380453159-3.8606197-9.78432944-5.262664281-13.216625949Z"/><path class="b" d="M1230.037365227,342.669765564c-3.121048323,1.015839836-5.379739287,2.613485341-6.784639355,4.79507813-1.092224139,1.71828987-1.716148254,4.368182682-1.870344603,7.953247796-.157051837,3.589348346-.234150011,7.175127331-.234150011,10.760906317v34.152349683c-1.093651883.935886174-3.783521526,2.496410335-8.06960893,4.678716996-4.29179838,2.185162149-9.51448583,4.407445642-15.673773325,6.666136605-6.162142983,2.262974196-12.982475938,4.174009502-20.468137583,5.731678176-7.484233901,1.556954801-14.971323291,2.338644626-22.455557192,2.338644626-14.817126942,0-28.072301978-1.907465947-39.768380597-5.730964304-11.696078619-3.819215125-21.558933978-9.433104423-29.58999382-16.842381766-8.033915331-7.404994111-14.193202826-16.451179918-18.47929023-27.13498806-4.29179838-10.679524911-6.433414338-22.649730372-6.433414338-35.906333152,0-3.8963133.38834636-8.381570988,1.169322313-13.45077596.778120465-5.065635613,2.143043702-10.4096813,4.093341968-16.023570598,1.948870522-5.613889298,4.678716996-11.30487677,8.18811168-17.076531777,3.507966939-5.767371775,7.912557093-11.227778596,13.216625949-16.374081743,7.484233901-7.328609808,16.684616057-13.216625949,27.602574211-17.661192934,10.913674922-4.444566985,24.170277702-6.666850477,39.766952853-6.666850477,9.357433993,0,17.621216103.818811168,24.794201818,2.456433504,7.172985715,1.636908464,13.218053693,3.431582637,18.129492957,5.379739287,4.912867008,1.95172601,8.692105302,3.742830823,11.344853602,5.380453159,2.649892812,1.637622336,4.131891055,2.455719632,4.445994729,2.455719632.309820442,0,1.167894569-.935172302,2.572794638-2.806944649,1.403472325-1.871058475,3.118192835-4.129749439,5.145589275-6.783211611h2.105922359v50.994731449h-2.808372393c-1.716148254-7.018075494-4.288942892-13.644235269-7.718383913-19.883476426-3.432296509-6.235671798-7.098743029-11.381974945-10.993628585-15.438909441-4.994248414-5.299785624-11.386258177-9.590870132-19.183168008-12.865400932-7.798337575-3.275244672-16.530419708-4.912867008-26.199101887-4.912867008-10.29117855,0-19.571514369,2.302951027-27.835296479,6.901000489-8.268065342,4.601618822-15.285426964,10.760192445-21.053512611,18.480004102-5.770941135,7.719097785-10.21550812,16.608231755-13.333700955,26.666688037-3.121048323,10.058456283-4.678716996,20.62518942-4.678716996,31.696630051,0,12.16366477,1.480570499,23.275082232,4.445994729,33.333538515,2.959713254,10.059170155,7.25008389,18.67703277,12.863973188,25.848590742,5.613889298,7.174413459,12.475626828,12.748325926,20.585212589,16.72530676,8.106730273,3.976980834,17.387066091,5.965114315,27.838151967,5.965114315,7.484233901,0,14.463046437-1.286397319,20.935009862-3.859905828,6.469107937-2.572794638,11.579003613-6.74323478,15.321120564-12.514889787,1.247848232-2.024540952,2.183020533-5.613889298,2.806944649-10.760192445.622496372-5.146303147.936600046-10.446088771.936600046-15.906495592,0-5.456837461-.274126843-10.369704469-.81952504-14.737173279-.548253685-4.36389945-2.144471446-7.953247796-4.794364258-10.760192445-3.589348346-4.053365137-9.905687678-6.469821809-18.947590253-7.251511634v-2.339358498h68.538849377v2.339358498c-2.6527483.314103674-5.536791124.975863005-8.654983958,1.988133481Z"/><path class="b" d="M1378.788298696,418.57720158h-143.159888075v-2.339358498c3.894885556-.621068628,7.521355245-1.637622336,10.876553579-3.04109466,3.352342846-1.403472324,6.119310664-3.351628974,8.303758941-5.848039309.779548209-.935172302,1.404900068-2.298667795,1.871772347-4.093341968.466872279-1.791104813.89519547-3.859905828,1.286397319-6.199264327.38834636-2.338644626.662473203-4.79507813.81952504-7.367872768.152768605-2.57350851.234150011-5.106326316.234150011-7.602736651,0-2.182306661.035693599-5.146303147.117075006-8.88913397.075670431-3.742830823.152768605-7.83617279.232722267-12.280739775.077098174-4.444566985.117075006-9.006208976.117075006-13.6842121v-59.182129256c0-2.807658521-.039976831-5.690987472-.117075006-8.65569783-.079953662-2.960427126-.232722267-5.767371775-.466872279-8.420833947-.234150011-2.649892812-.62535186-5.029228141-1.170750057-7.134436628-.548253685-2.105208487-1.286397319-3.625755817-2.22156962-4.561641991-2.338644626-2.492840975-4.835768833-4.093341968-7.485661645-4.795792002-2.654176044-.701736162-6.082189321-1.362781621-10.292606294-1.988133481v-2.339358498h129.12516483l15.906495592,38.59763054-2.34007237,1.169322313c-12.63125092-15.749443755-24.484381376-26.352584364-35.556535879-31.812991185-2.6527483-1.246420488-7.564187564-2.339358498-14.735745535-3.275244672-7.174413459-.935886174-15.906495592-1.403472324-26.200529631-1.403472324-3.273816928,0-6.664708861.117075006-10.174103545.350511145-3.509394683.234150011-6.045067978.508276854-7.602736651.818811168-.315531418,2.496410335-.583947285,7.642713482-.818097296,15.438909441-.234150011,7.799765319-.351225017,16.842381766-.351225017,27.13498806v14.971323291c0,4.056934497.037121343,7.36858664.117075006,9.941381277.077098174,2.572794638.117075006,4.561641991.117075006,5.965114315v2.572794638h4.677289252c2.338644626,0,5.029942013-.076384303,8.071036674-.233436139,3.039666916-.153482477,6.080761577-.351225017,9.121856237-.585375029,3.04109466-.233436139,5.573912467-.584661157,7.604164395-1.052247307,4.677289252-1.089368651,8.573602552-2.57350851,11.696078619-4.444566985,3.116765091-1.871058475,5.649582897-4.130463311,7.601308907-6.783925483,1.947442778-2.649892812,3.509394683-5.730964304,4.678716996-9.239645115s2.222997364-7.445684814,3.158169666-11.813153625h2.806944649v73.685152524h-2.806944649c-1.249275976-4.98925131-3.158169666-10.135554457-5.732392048-15.438909441-2.572794638-5.299785624-5.262664281-9.276052586-8.06960893-11.929514758-2.495696463-2.182306661-5.496814292-3.976980834-9.006208976-5.380453159-3.507966939-1.403472324-7.601308907-2.258690964-12.280025903-2.572794638-2.34007237-.153482477-4.290370636-.270557483-5.848039309-.351225017-1.560524161-.076384303-3.122476067-.117075006-4.678716996-.117075006h-10.759478573c-.315531418,2.185876021-.468300023,5.380453159-.468300023,9.590870132v28.070874234c0,2.496410335.037121343,4.875745664.117075006,7.134436628.077098174,2.262260324.117075006,4.174009502.117075006,5.730964304.152768605,4.99282067.426895448,9.707945138.818097296,14.152512123.386918616,4.444566985,1.286397319,7.759074616,2.689869643,9.941381277,1.403472325,2.185876021,4.755815171,3.742830823,10.058456283,4.678716996,5.299785624.935172302,11.070726759,1.403472324,17.309967917,1.403472324,2.649892812,0,6.04221249-.077098174,10.176959033-.234150011,4.129035567-.153482477,8.45795529-.544684325,12.981048194-1.169322313,4.989965182-.6217825,9.591584004-1.831081644,13.802000978-3.625755817,4.210416974-1.791104813,8.265209854-4.327491979,12.164378642-7.602736651,3.8963133-3.2745308,7.679834826-7.287919105,11.344853602-12.046589764,3.662163288-4.755815171,7.445684814-10.486779475,11.346281346-17.193606783l2.572794638.701736162-11.696078619,44.679105989Z"/><path class="b" d="M1500.072271751,361.601650633h10.766617293c-3.682502412,5.742386255-7.209221522,11.31915421-10.578529913,16.727448376-3.373841216,5.411863526-6.361743621,10.408967428-8.962179634,14.989883962-2.603441257,4.58305815-4.667007396,8.612151639-6.1867147,12.091563699-1.52103521,3.477984316-2.210406993,6.210686278-2.070970835,8.198105887.203178325,2.872620872,1.794817997,4.30607582,4.77594741,4.30607582,2.318656211,0,5.191822531-1.130773226,8.622554123-3.395175165,3.426298604-2.262260324,7.098256232-5.383308647,11.015523451-9.358147865,3.914411731-3.974839218,7.893708773-8.612151639,11.936513301-13.912651135,4.041326865-5.299785624,7.840305589-10.931521722,11.394030766-16.894494421l1.017613117.331950473c-2.6609905,4.528090007-5.822478977,9.414543752-9.482937849,14.657933489-3.660658547,5.246245225-7.53877466,10.131271225-11.634548015,14.657933489-4.098828518,4.529517751-8.248089789,8.310183789-12.449461151,11.345567474-4.202998781,3.038239172-8.236749963,4.554503271-12.100225151,4.554503271-3.203857473,0-5.604896127-.802392112-7.209226287-2.401465361-1.60433016-1.599073249-2.48336738-3.504397579-2.63868916-5.713831376-.110370643-1.54553285.031550146-3.064652436.422707204-4.554503271.391256895-1.491278579.808532595-3.007542677,1.25227637-4.555217143l-.343927089-.165618301c-1.326089549,1.547674466-2.993498964,3.341634767-5.002278162,5.382594775-2.007601048,2.044529368-4.192452473,3.949139827-6.55317645,5.714545248-2.359445989,1.767547037-4.820881725,3.258111744-7.385734951,4.47169412-2.563425482,1.213582376-5.063103669,1.821801308-7.490268421,1.821801308-4.086203248,0-7.045631097-1.269978263-8.881238873-3.808507045-1.835507938-2.539956526-2.866977442-5.40972191-3.092681254-8.613579383-.320238751-4.526662263.761625452-9.523766165,3.248298339-14.98917009,2.483817399-5.465403925,5.765475182-10.60028512,9.843445766-15.403215842,4.075115096-4.802930722,8.596737267-8.804183203,13.562310537-12.008040677,4.962568026-3.201715857,9.764724743-4.803644594,14.402037165-4.803644594,2.207292181,0,4.161924595.30553721,5.860013361.910900654,1.700744579.608218932,3.1376368,1.437024308,4.316537395,2.484274511,1.177173339,1.051533435,2.116622747,2.23584706,2.819176942,3.561507338.698320882,1.324946406,1.267006792,2.707002571,1.699318359,4.140457519h.331236601l4.776630394-9.771479745ZM1449.187008656,407.97691646c.179225093,2.54138427.838929064,4.500249,1.987428782,5.880163549,1.145544393,1.381342293,2.656469176,2.070228759,4.535380243,2.070228759,1.876055579,0,4.035860548-.688886466,6.479664501-2.070228759,2.440848627-1.379914549,4.960231627-3.229556865,7.55809908-5.548213075,2.595011965-2.318656211,5.137984989-4.995676158,7.630546492-8.033915331,2.490934083-3.035383685,4.664209477-6.264940549,6.521253924-9.688670594,1.855417028-3.420874557,3.322247886-6.899572745,4.397537248-10.43466682,1.076517431-3.532238587,1.500446578-6.899572745,1.274742766-10.103430218-.179374849-2.539242654-1.035098996-4.47169412-2.562889207-5.797354398-1.529267874-1.324946406-3.344771293-1.986705737-5.440699444-1.986705737-3.312366015,0-6.910775356,1.436310436-10.793550686,4.305361948-3.883074842,2.873334744-7.487717048,6.542636752-10.81585355,11.015044744-3.328086583,4.47169412-6.043779293,9.414543752-8.145300955,14.82355179-2.101671418,5.411149654-2.978518948,10.60028512-2.626359195,15.568834143Z"/><path class="b" d="M1545.94854106,361.601650633l-19.722107507,30.309576782.353762089.331236602c2.124623807-2.758401354,4.600630841-5.988672091,7.432204497-9.689384466,2.828518493-3.697856888,5.893563863-7.205109955,9.194836599-10.51747597,3.298417247-3.312366015,6.774255859-6.099322248,10.423482198-8.36443806,3.650404489-2.261546452,7.351861988-3.395175165,11.106828634-3.395175165,3.312366015,0,5.942822512.910900654,7.894224977,2.732701962,1.949974722,1.821801308,3.026501326,4.16972627,3.229879326,7.039491654.124828522,1.767547037-.36459128,3.866330676-1.459543186,6.294209301-1.099334975,2.429306368-2.490188767,5.025658782-4.172261861,7.784774007-1.683650595,2.761256842-3.526719111,5.576767955-5.530633292,8.446533338-2.006969344,2.872620872-3.857096976,5.605322834-5.550382895,8.198105887-1.694963257,2.596352413-3.101602834,4.969262895-4.217312836,7.122300804-1.118615409,2.153751782-1.625368812,3.949139827-1.524343765,5.383308647.219213704,3.092493443,1.873025499,4.637312421,4.965518943,4.637312421,3.532238587,0,7.203024383-1.185027497,11.011378915-3.561507338,3.806677194-2.372910482,8.271339362-6.376304579,13.395214573-12.007326805,2.051870563-2.208006053,4.116360463-4.637312421,6.193469701-7.287919105,2.074203831-2.649892812,4.07074048-5.271230745,5.987004053-7.867583158,1.913158491-2.592783053,3.644175229-5.051358173,5.194078606-7.370014384,1.54704789-2.318656211,2.764308153-4.249679933,3.647747152-5.796640526l1.207234568.662473203c-1.976326329,3.312366015-4.53972293,7.261505842-7.694123604,11.842422376-3.154500511,4.582344278-6.620269442,9.08330715-10.392724047,13.498605384-2.24267762,2.649892812-4.547727038,5.191277082-6.914798823,7.619155707-2.37002711,2.429306368-4.758765647,4.554503271-7.169121015,6.376304579-2.413210857,1.821801308-4.820881725,3.258111744-7.231429313,4.306789692-2.41044775,1.047250203-4.832948158,1.572659985-7.260112911,1.572659985-3.203857473,0-5.916064709-.885201263-8.137070975-2.64917894-2.223761917-1.765405421-3.442983315-4.196139534-3.660819194-7.287919105-.233821339-3.312366015.835686895-6.928127624,3.208674459-10.849426443,2.374165714-3.917729459,5.018943722-7.866869286,7.941123311-11.842422376,2.922129671-3.974839218,5.580017417-7.784774007,7.97208574-11.427662752,2.39216816-3.644316489,3.491211079-6.845318474,3.295950606-9.606575316-.092907519-1.325660278-.60599002-2.318656211-1.534814514-2.981129414-.931630063-.663187075-2.114961319-.993709805-3.548416266-.993709805-2.761256842,0-5.781031854,1.022264684-9.059075444,3.063224692-3.278293183,2.044529368-6.594194785,4.749390323-9.943571331,8.116724481-3.352331871,3.368761902-6.675838037,7.121586932-9.970818011,11.262758323-3.297785543,4.140457519-6.345715892,8.280915038-9.143840963,12.422086429-2.799502897,4.140457519-5.28045968,8.115296737-7.440014862,11.924517654-2.1596051,3.809934789-3.757989077,6.985237383-4.792146685,9.523766165h-10.269762391c2.529806715-4.857184993,5.245349668-9.797893008,8.146728699-14.82355179,2.899751611-5.022803294,5.78005413-9.992066188,8.636524485-14.90636094,2.853465111-4.912153136,5.582707046-9.660829587,8.186148302-14.243887737,2.600436012-4.580916534,4.930830069-8.750642805,6.983793857-12.505609451l10.731351399-.49614103Z"/><path class="b" d="M1691.107292576,303.962198738c-3.822647355,6.848173962-8.006093354,14.078269436-12.545126208,21.697425143-4.543316086,7.619155707-9.0884994,15.18334327-13.63687785,22.691134947-4.550005869,7.510647165-8.922532998,14.770011391-13.119158888,21.780234293-4.199730972,7.013792263-7.913222171,13.444351113-11.143628599,19.295959782-3.22912844,5.853750285-5.771135241,10.90582233-7.624492821,15.154788391-1.853557255,4.251821549-2.709854014,7.370728256-2.568990112,9.358147865.086317574,1.215723992.457094847,2.181592789,1.11513739,2.898320263.656415124.719582962,1.592327421,1.076518955,2.808765285,1.076518955,2.759829098,0,5.828027334-1.102218346,9.207849548-3.312366015,3.375389225-2.208006053,7.383554434-5.685990369,12.015979083-10.43466682,4.011218044-4.195425662,7.875386914-8.86057909,11.599695246-13.996174158,3.721353007-5.134167323,6.900083701-10.185525496,9.530531024-15.154788391l1.371375206.663187075c-.868881283,1.767547037-2.021633024,3.837775797-3.453971992,6.210686278-1.433966387,2.375765969-3.027769947,4.832199473-4.778655029,7.370728256-1.755367989,2.54138427-3.6438855,5.108467932-5.66845794,7.701964857-2.026100021,2.594924669-4.113902995,5.051358173-6.270597561,7.370014384-4.097350855,4.528803879-8.194324922,8.255929518-12.295155513,11.180663045-4.099502685,2.926161271-7.970980457,4.388171098-11.614583074,4.388171098-3.535094075,0-6.209969842-.745282353-8.026055047-2.23584706-1.817512948-1.490564707-2.806536373-3.395175165-2.969925762-5.713831376-.14893151-2.096642023.148182341-4.140457519.892569621-6.128591.741481873-1.987419609,1.500227195-3.752111158,2.275207571-5.299785624l-.342499345-.165618301c-1.626683136,1.987419609-3.43733512,4.114758127-5.430128858,6.376304579-1.992993413,2.26440194-4.136159986,4.389598842-6.423888581,6.377018451-2.289156339,1.987419609-4.741815486,3.617903225-7.356150348,4.885739872-2.617240268,1.268550519-5.360154019,1.904610459-8.229919403,1.904610459-3.974839218,0-7.125095356-1.215723992-9.449590263-3.643602617-2.324544826-2.427164752-3.604192187-5.300499496-3.838063445-8.612151639-.326728859-4.638026293.913494853-9.715083858,3.7268813-15.238311413,2.813136853-5.519658196,6.453158373-10.654539391,10.921392465-15.403215842,4.468084336-4.746534835,9.347650992-8.721374053,14.644460864-11.925231526,5.293804627-3.201715857,10.314406173-4.803644594,15.063082624-4.803644594,3.533666331,0,6.427527246,1.105073834,8.681782422,3.312366015,2.252627756,2.210147669,3.444893006,5.026372654,3.578323331,8.44724721h.496854902l37.925220905-68.073404842h10.93080785ZM1637.128359242,372.201221881c-.18734262-2.649892812-.79333264-4.968549023-1.816542316-6.955968632-1.026065164-1.987419609-3.138170995-2.981129414-6.33917298-2.981129414-2.210147669,0-4.611420811.773123361-7.206624995,2.318656211-2.59815951,1.546960594-5.186652679,3.588634474-7.765679184,6.127877128-2.582031749,2.54138427-5.056242704,5.439704533-7.418399553,8.695674662-2.366589837,3.258111744-4.422869829,6.570477759-6.173173126,9.937811917-1.74897539,3.368761902-3.119419187,6.65328691-4.107147994,9.855002767-.989306308,3.203857473-1.392719496,6.073622857-1.213344647,8.612865511.163389389,2.318656211.740653542,4.251821549,1.734847622,5.796640526.991188836,1.546960594,2.6476639,2.318656211,4.966320111,2.318656211,1.988847353,0,4.224402357-.771695617,6.709770092-2.318656211,2.483790236-1.544818978,5.074769561-3.560793466,7.772788218-6.04578185,2.693685507-2.484274511,5.308155019-5.326198888,7.843708049-8.530056361,2.532497867-3.201001985,4.790868891-6.402003971,6.775312747-9.605861444,1.981388693-3.201001985,3.554412926-6.319908692,4.722077941-9.358861737,1.164559933-3.035383685,1.670531876-5.656721617,1.515260014-7.866869286Z"/><rect class="b" x="240.879627147" y="705.981973915" width="1438.240745706" height="5.848039309"/><path class="b" d="M364.01040891,526.030462191c-2.028824184-7.485661645-5.069918845-14.503023268-9.123283981-21.053512611-4.057648368-6.5490616-8.852012627-12.240049072-14.385948262-17.075817905-5.536791123-4.831485601-11.776032281-8.654983958-18.713440241-11.461928607-6.941691192-2.806944649-14.310277832-4.210416973-22.105759919-4.210416973-10.760906317,0-20.351062577,2.420026033-28.771896524,7.251511634-8.422261691,4.835768833-15.479600145,11.227778596-21.170587617,19.181740264-5.69384296,7.953961668-10.058456283,16.9587429-13.099550943,27.017199183-3.04109466,10.059884027-4.561641991,20.391039408-4.561641991,30.994893889,0,11.22920634,1.597645505,21.754534902,4.795792002,31.580268917,3.193863265,9.824306271,7.755505256,18.362215224,13.683498228,25.613726858,5.925137484,7.251511634,13.099550943,12.982475938,21.521812634,17.192892911,8.420833947,4.211844717,17.77826794,6.316339332,28.070874234,6.316339332,8.106730273,0,15.70803918-1.480570499,22.806782209-4.444566985,7.094459797-2.959713254,13.410799129-6.860309786,18.947590253-11.696078619,5.533935636-4.832913345,10.212652632-10.4096813,14.034723245-16.726020632,3.820642869-6.316339332,6.433414338-12.823996357,7.836886662-19.531537537h2.806944649l-.70102229,51.461603728h-2.808372393c-1.870344603-2.649892812-3.822070613-5.065635613-5.848039309-7.25008389-2.02739644-2.183020533-3.430868765-3.275244672-4.210416973-3.275244672-.314103674,0-1.717575998.818097296-4.210416973,2.455719632-2.495696463,1.637622336-6.082189321,3.432296509-10.759478573,5.379739287-4.678716996,1.953153754-10.373987701,3.66644652-17.077245649,5.147017019-6.706113437,1.480570499-14.425925093,2.222997364-23.158007226,2.222997364-14.503023268,0-27.602574211-2.065945528-39.29865283-6.199264327-11.696078619-4.130463311-21.637459896-9.97850262-29.825571576-17.544117928-8.186683936-7.56275982-14.465901925-16.608945627-18.830515247-27.135701932-4.36746881-10.525328562-6.5490616-22.104332175-6.5490616-34.737010839,0-2.806944649.192745436-6.002235658.583947285-9.591584004.38834636-3.585065114,1.089368651-7.404280239,2.105922359-11.461928607,1.012270476-4.051937393,2.415742801-8.303758941,4.210416973-12.748325926,1.790390941-4.444566985,4.093341968-8.924827569,6.900286617-13.45077596,3.275244672-5.299785624,7.328609808-10.368276725,12.164378642-15.205473302,4.831485601-4.831485601,10.526756306-9.081879406,17.075817905-12.746898182,6.550489344-3.663591032,13.954769583-6.587610687,22.222834925-8.772058964,8.26378211-2.183020533,17.544117928-3.275244672,27.836724223-3.275244672,9.357433993,0,17.544117928.858074127,24.561479551,2.572794638,7.017361622,1.717575998,12.865400932,3.589348346,17.544117928,5.613889298,4.678716996,2.028824184,8.26378211,3.900596532,10.760906317,5.613889298,2.492840975,1.719003742,3.8963133,2.572794638,4.210416974,2.572794638.311248186,0,.89519547-.351225017,1.754697342-1.052247307.855218639-.70102229,1.790390941-1.557668673,2.806944649-2.572794638,1.012270476-1.012270476,2.064517784-2.183020533,3.158169666-3.507966939,1.089368651-1.324946406,2.104494615-2.691297387,3.04109466-4.094769712h2.572794638v52.398203773l-2.806944649.234150011Z"/><path class="b" d="M542.839624638,589.422294549c-4.677289252,10.608137712-11.033605416,19.808519868-19.064665258,27.604001955-8.032487587,7.799765319-17.389921579,13.800573234-28.06944649,18.012417951-10.683808143,4.20898923-22.028661744,6.314911588-34.035988549,6.314911588-11.853130456,0-23.080909052-2.064517784-33.684763532-6.197836583-10.606709968-4.131891055-19.882762554-9.979930364-27.836724223-17.544117928-7.953961668-7.56275982-14.233179657-16.608945627-18.830515247-27.135701932-4.601618822-10.526756306-6.900286617-22.105759919-6.900286617-34.737010839,0-13.410799129,2.415742801-25.456675021,7.251511634-36.141910908,4.831485601-10.679524911,11.344853602-19.725710717,19.531537537-27.134274188,8.18811168-7.405707983,17.77826794-13.099550943,28.773324268-17.077245649,10.993628585-3.974839218,22.572632198-5.963686571,34.737010839-5.963686571,13.252319548,0,25.146854579,2.338644626,35.672183141,7.017361622,10.526756306,4.678716996,19.453011619,10.957934985,26.784476915,18.830515247,7.328609808,7.876863494,12.942499106,16.960170644,16.843095638,27.251349194,3.8963133,10.294034038,5.848039309,21.053512611,5.848039309,32.281291207,0,12.478482315-2.34007237,24.017509097-7.018789366,34.619935834ZM517.22589778,526.264612202c-2.420026033-9.668682179-6.082189321-18.440741143-10.995056329-26.316176892-4.911439264-7.872580262-11.033605416-14.268873256-18.362215224-19.181740264-7.331465296-4.912867008-15.986449255-7.36858664-25.964951875-7.36858664-10.139837689,0-18.911896653,2.455719632-26.316176892,7.36858664-7.408563471,4.912867008-13.490752792,11.269183171-18.246567962,19.064665258-4.758670659,7.799765319-8.266637598,16.648922458-10.526756306,26.550326904-2.261546452,9.905687678-3.390891934,19.922739386-3.390891934,30.059721587,0,10.605282224,1.246420488,20.817934856,3.742116951,30.642241128,2.492840975,9.825734015,6.199264327,18.480717974,11.112131334,25.964951875,4.911439264,7.487089389,11.070726759,13.492180536,18.47929023,18.012417951,7.405707983,4.525948391,16.023570598,6.784639355,25.84787687,6.784639355,9.825734015,0,18.363642968-2.492840975,25.615154602-7.487089389,7.251511634-4.988537438,13.29229638-11.421951776,18.128065213-19.297387526,4.832913345-7.872580262,8.45795529-16.724592888,10.877981323-26.550326904,2.415742801-9.824306271,3.625041945-19.648612543,3.625041945-29.474346558,0-9.510202598-1.209299144-19.100358858-3.625041945-28.771896524Z"/><path class="b" d="M717.228556613,478.543697681c-3.509394683,2.187303765-6.199264327,5.538218867-8.071036674,10.059884027-1.092224139,2.338644626-1.794674173,6.666136605-2.104494615,12.982475938-.314103674,6.314911588-.62535186,13.0624296-.935172302,20.233987572-.315531418,6.706113437-.585375029,14.620098274-.81952504,23.741954511-.234150011,9.123283981-.351225017,18.911896653-.351225017,29.357271553v14.971323291c0,5.461120693.037121343,11.03503316.117075006,16.726020632.077098174,5.695270704.117075006,11.344853602.117075006,16.960170644v15.204045558c0,.623924116-.197028668,1.13220097-.583947285,1.52054733-.391201848.38834636-.976576877.585375029-1.754697342.585375029-1.250703719,0-2.654176044-.779548209-4.210416973-2.34007237-13.25660278-15.281143733-25.343883247-29.315866978-36.258985914-42.105597479-10.91653041-12.785447269-21.32621171-24.989802742-31.227616156-36.608783187-9.905687678-11.614697212-19.612918944-22.960978558-29.123121541-34.035988549-9.51448583-11.070726759-19.572942112-22.532655366-30.176796593-34.385785822v98.714218226c0,7.953961668.19417318,15.128375128.585375029,21.521812634.386918616,6.396292995,1.363495493,11.150680422,2.924019655,14.268873256,1.71472051,3.589348346,4.404590154,6.279217989,8.06960893,8.06960893,3.663591032,1.794674173,8.692105302,3.081071492,15.088398296,3.8606197v2.338644626h-57.545220792v-2.338644626c3.743544695-.468300023,7.485661645-1.440593668,11.22920634-2.924019655,3.742116951-1.480570499,6.703257949-3.937717875,8.88913397-7.370014384,2.181592789-3.273816928,3.585065114-8.106730273,4.210416973-14.503023268.621068628-6.392009763,1.089368651-14.034723245,1.403472324-22.923857215.309820442-6.703257949.543970453-14.620098274.70102229-23.743382255.154196349-9.123283981.234150011-18.906185678.234150011-29.357271553v-28.537746513c0-3.118192835-.079953662-6.93740796-.234150011-11.461928607-.466872279-4.521665159-1.560524161-8.223805279-3.273816928-11.11070359-1.719003742-2.884042823-3.743544695-5.147017019-6.082189321-6.784639355-2.34007237-1.636194592-4.875745664-2.806944649-7.602736651-3.509394683-2.729846475-.70102229-5.344045687-1.205015912-7.836886662-1.519119586v-2.34007237h47.486764509l110.878596867,129.592037109v-79.532477962c0-6.234957926-.079953662-12.200072241-.234150011-17.895342945-.157051837-5.689559729-.858074127-10.175531289-2.104494615-13.45077596-1.560524161-4.363185579-4.327491979-7.912557093-8.305186685-10.642403567-3.976266962-2.726990987-9.707231266-4.638740165-17.192892911-5.730964304v-2.34007237h58.012093071v2.34007237c-5.770941135.782403697-10.408253556,2.261546452-13.917648239,4.443139241Z"/><path class="b" d="M889.417335127,477.842675391c-3.04109466,1.871772347-4.795792002,3.122476067-5.262664281,3.742116951-.468300023.468300023-1.133628714,1.210726888-1.988847353,2.222997364-.858074127,1.015125964-1.834651004,2.497124207-2.924019655,4.444566985-1.092224139,1.95172601-2.378621457,4.408873386-3.859191956,7.36858664-1.484853731,2.963996486-3.158169666,6.706113437-5.029942013,11.227778596-3.121048323,7.485661645-6.5490616,15.869374249-10.292606294,25.146854579-3.742116951,9.280335818-7.565615308,18.830515247-11.461928607,28.654821519-3.899168788,9.825734015-7.759788488,19.690017118-11.579003613,29.591421564-3.823498357,9.905687678-7.448540302,19.29881527-10.877981323,28.18794924l-11.461928607,23.392157238h-2.806944649c-5.145589275-12.63125092-9.941381277-24.678554556-14.385948262-36.140483164-4.444566985-11.461928607-8.772058964-22.492678535-12.982475938-33.100816247-4.210416974-10.602426736-8.268065342-20.855056199-12.164378642-30.759316133-3.899168788-9.90283219-7.799765319-19.844213467-11.696078619-29.825571576-1.092224139-2.961140998-2.104494615-5.533935636-3.04109466-7.719811657-.935172302-2.183020533-1.834651004-4.210416973-2.689869643-6.082189321-.858074127-1.871772347-1.717575998-3.662163288-2.572794638-5.379739287-.859501871-1.71472051-1.754697342-3.509394683-2.689869643-5.381167031-.468300023-.935172302-1.169322313-2.104494615-2.105922359-3.507966939-.935172302-1.403472325-2.22156962-2.806944649-3.859191956-4.210416973-1.637622336-1.404900068-3.626469689-2.609915981-5.965114315-3.626469689-2.338644626-1.012270476-5.299785624-1.596217761-8.88913397-1.753269598v-2.574222382h69.942321701v2.34007237c-.782403697.157051837-2.185876021.391201848-4.210416974.70102229-2.028824184.315531418-4.093341968.899478702-6.199264327,1.754697342-2.104494615.859501871-3.976266962,2.068801015-5.613889298,3.626469689-1.637622336,1.559096417-2.455719632,3.507966939-2.455719632,5.848039309,0,1.402044581.855218639,4.717266084,2.572794638,9.939953533,1.71472051,5.228398426,3.936290131,11.543310014,6.667564349,18.949017997,2.725563243,7.408563471,5.806634734,15.519576976,9.238931243,24.327329539,3.428013277,8.812035795,6.820332954,17.468447498,10.175531289,25.966379619,3.352342846,8.500787609,6.510512512,16.413344702,9.474508998,23.741954511,2.959713254,7.331465296,5.299785624,13.333700955,7.017361623,18.010990207.778120465-1.713292766,2.22156962-5.299785624,4.327491979-10.759478573,2.105922359-5.456837461,4.755815171-12.241476816,7.953961668-20.351062577,3.193863265-8.106730273,6.74323478-17.309967917,10.642403567-27.602574211,3.8963133-10.292606294,7.953961668-21.052084867,12.164378642-32.281291207,3.118192835-8.575030296,5.145589275-15.086970552,6.082189321-19.532965281.935172302-4.443139241,1.403472325-7.521355245,1.403472325-9.240358987,0-2.338644626-.782403697-4.286087404-2.34007237-5.848039309-1.560524161-1.55624093-3.507966939-2.842638248-5.848039309-3.857764212-2.338644626-1.01369822-4.794364258-1.791818685-7.36858664-2.34007237-2.572794638-.543970453-4.875745664-.89519547-6.900286617-1.052247307v-2.34007237h54.504126132v2.574222382c-4.057648368.466872279-7.602736651,1.636194592-10.643831311,3.507966939Z"/><path class="b" d="M898.65626637,640.18430373v-2.338644626c3.8963133-.622496372,7.521355245-1.63905008,10.876553579-3.04109466,3.352342846-1.404900068,6.199264327-3.429441021,8.539336697-6.082189321.778120465-.936600046,1.362067749-2.258690964,1.753269598-3.977694706.38834636-1.713292766.702450034-3.742116951.936600046-6.082189321.234150011-2.338644626.386918616-4.794364258.466872279-7.367158896.077098174-2.572794638.117075006-5.105612444.117075006-7.602736651,0-2.183020533.037121343-5.147017019.117075006-8.88913397.077098174-3.742116951.154196349-7.836886662.234150011-12.280025903.077098174-4.445994729.117075006-9.006208976.117075006-13.684925972v-67.603677075c0-2.806944649-.117075006-5.41686063-.351225017-7.836886662-.234150011-2.415742801-.583947285-4.59733559-1.052247307-6.5490616-.468300023-1.948870522-1.169322313-3.467990108-2.105922359-4.561641991-2.184448277-2.649892812-4.875745664-4.561641991-8.06960893-5.730964304-3.198146497-1.170750057-6.824616186-1.987419609-10.877981323-2.455719632v-2.34007237h69.943749445v2.34007237c-3.275244672.468300023-6.784639355,1.32637415-10.526756306,2.572794638-3.743544695,1.250703719-6.630443006,3.743544695-8.654983958,7.484233901-1.403472325,2.655603788-2.14589919,6.00651889-2.222997364,10.059884027-.079953662,4.057648368-.197028668,7.87543575-.351225017,11.461928607,0,3.900596532-.039976831,7.759788488-.115647262,11.579003613-.081381406,3.823498357-.117075006,7.682690313-.117075006,11.579003613v78.363155648c0,4.525948391.075670431,8.88913397.232722267,13.100978687.154196349,4.20898923.855218639,7.174413459,2.105922359,8.88913397,1.871772347,2.6527483,4.831485601,4.677289252,8.88913397,6.082189321,4.053365137,1.402044581,7.719811657,2.261546452,10.993628585,2.572794638v2.338644626h-70.877494003Z"/><path class="b" d="M1289.76673909,640.18430373v-2.338644626c3.8963133-.622496372,7.521355245-1.63905008,10.876553579-3.04109466,3.352342846-1.404900068,6.199264327-3.429441021,8.539336697-6.082189321.778120465-.936600046,1.362067749-2.258690964,1.753269598-3.977694706.38834636-1.713292766.702450034-3.742116951.936600046-6.082189321.234150011-2.338644626.386918616-4.794364258.466872279-7.367158896.077098174-2.572794638.117075006-5.105612444.117075006-7.602736651,0-2.183020533.037121343-5.147017019.117075006-8.88913397.077098174-3.742116951.154196349-7.836886662.234150011-12.280025903.077098174-4.445994729.117075006-9.006208976.117075006-13.684925972v-67.603677075c0-2.806944649-.117075006-5.41686063-.351225017-7.836886662-.234150011-2.415742801-.583947285-4.59733559-1.052247307-6.5490616-.468300023-1.948870522-1.169322313-3.467990108-2.105922359-4.561641991-2.184448277-2.649892812-4.875745664-4.561641991-8.06960893-5.730964304-3.198146497-1.170750057-6.824616186-1.987419609-10.877981323-2.455719632v-2.34007237h69.943749445v2.34007237c-3.275244672.468300023-6.784639355,1.32637415-10.526756306,2.572794638-3.743544695,1.250703719-6.630443006,3.743544695-8.654983958,7.484233901-1.403472325,2.655603788-2.14589919,6.00651889-2.222997364,10.059884027-.079953662,4.057648368-.197028668,7.87543575-.351225017,11.461928607,0,3.900596532-.039976831,7.759788488-.115647262,11.579003613-.081381406,3.823498357-.117075006,7.682690313-.117075006,11.579003613v78.363155648c0,4.525948391.075670431,8.88913397.232722267,13.100978687.154196349,4.20898923.855218639,7.174413459,2.105922359,8.88913397,1.871772347,2.6527483,4.831485601,4.677289252,8.88913397,6.082189321,4.053365137,1.402044581,7.719811657,2.261546452,10.993628585,2.572794638v2.338644626h-70.877494003Z"/><path class="b" d="M1528.385589134,589.422294549c-4.677289252,10.608137712-11.033605416,19.808519868-19.064665258,27.604001955-8.032487587,7.799765319-17.389921579,13.800573234-28.06944649,18.012417951-10.683808143,4.20898923-22.028661744,6.314911588-34.035988549,6.314911588-11.853130456,0-23.080909052-2.064517784-33.684763532-6.197836583-10.606709968-4.131891055-19.882762554-9.979930364-27.836724223-17.544117928-7.953961668-7.56275982-14.233179657-16.608945627-18.830515247-27.135701932-4.601618822-10.526756306-6.900286617-22.105759919-6.900286617-34.737010839,0-13.410799129,2.415742801-25.456675021,7.251511634-36.141910908,4.831485601-10.679524911,11.344853602-19.725710717,19.531537537-27.134274188,8.18811168-7.405707983,17.77826794-13.099550943,28.773324268-17.077245649,10.993628585-3.974839218,22.572632198-5.963686571,34.737010839-5.963686571,13.252319548,0,25.146854579,2.338644626,35.672183141,7.017361622,10.526756306,4.678716996,19.453011619,10.957934985,26.784476915,18.830515247,7.328609808,7.876863494,12.942499106,16.960170644,16.843095638,27.251349194,3.8963133,10.294034038,5.848039309,21.053512611,5.848039309,32.281291207,0,12.478482315-2.34007237,24.017509097-7.018789366,34.619935834ZM1502.771862276,526.264612202c-2.420026033-9.668682179-6.082189321-18.440741143-10.995056329-26.316176892-4.911439264-7.872580262-11.033605416-14.268873256-18.362215224-19.181740264-7.331465296-4.912867008-15.986449255-7.36858664-25.964951875-7.36858664-10.139837689,0-18.911896653,2.455719632-26.316176892,7.36858664-7.408563471,4.912867008-13.490752792,11.269183171-18.246567962,19.064665258-4.758670659,7.799765319-8.266637598,16.648922458-10.526756306,26.550326904-2.261546452,9.905687678-3.390891934,19.922739386-3.390891934,30.059721587,0,10.605282224,1.246420488,20.817934856,3.742116951,30.642241128,2.492840975,9.825734015,6.199264327,18.480717974,11.112131334,25.964951875,4.911439264,7.487089389,11.070726759,13.492180536,18.47929023,18.012417951,7.405707983,4.525948391,16.023570598,6.784639355,25.84787687,6.784639355,9.825734015,0,18.363642968-2.492840975,25.615154602-7.487089389,7.251511634-4.988537438,13.29229638-11.421951776,18.128065213-19.297387526,4.832913345-7.872580262,8.45795529-16.724592888,10.877981323-26.550326904,2.415742801-9.824306271,3.625041945-19.648612543,3.625041945-29.474346558,0-9.510202598-1.209299144-19.100358858-3.625041945-28.771896524Z"/><path class="b" d="M1702.774521109,478.543697681c-3.507966939,2.187303765-6.199264327,5.538218867-8.06960893,10.059884027-1.093651883,2.338644626-1.794674173,6.666136605-2.105922359,12.982475938-.314103674,6.314911588-.623924116,13.0624296-.935172302,20.233987572-.314103674,6.706113437-.585375029,14.620098274-.818097296,23.741954511-.234150011,9.123283981-.351225017,18.911896653-.351225017,29.357271553v14.971323291c0,5.461120693.035693599,11.03503316.117075006,16.726020632.075670431,5.695270704.117075006,11.344853602.117075006,16.960170644v15.204045558c0,.623924116-.198456412,1.13220097-.585375029,1.52054733-.391201848.38834636-.975149133.585375029-1.754697342.585375029-1.249275976,0-2.6527483-.779548209-4.210416973-2.34007237-13.25660278-15.281143733-25.343883247-29.315866978-36.25755817-42.105597479-10.917958154-12.785447269-21.327639454-24.989802742-31.2290439-36.608783187-9.904259934-11.614697212-19.612918944-22.960978558-29.123121541-34.035988549-9.513058086-11.070726759-19.572942112-22.532655366-30.175368849-34.385785822v98.714218226c0,7.953961668.19417318,15.128375128.583947285,21.521812634.38834636,6.396292995,1.363495493,11.150680422,2.924019655,14.268873256,1.71472051,3.589348346,4.404590154,6.279217989,8.071036674,8.06960893,3.662163288,1.794674173,8.692105302,3.081071492,15.088398296,3.8606197v2.338644626h-57.545220792v-2.338644626c3.742116951-.468300023,7.485661645-1.440593668,11.227778596-2.924019655,3.743544695-1.480570499,6.703257949-3.937717875,8.88913397-7.370014384,2.183020533-3.273816928,3.586492858-8.106730273,4.210416973-14.503023268.622496372-6.392009763,1.089368651-14.034723245,1.403472325-22.923857215.311248186-6.703257949.545398197-14.620098274.702450034-23.743382255.152768605-9.123283981.234150011-18.906185678.234150011-29.357271553v-28.537746513c0-3.118192835-.081381406-6.93740796-.234150011-11.461928607-.468300023-4.521665159-1.560524161-8.223805279-3.275244672-11.11070359-1.717575998-2.884042823-3.742116951-5.147017019-6.082189321-6.784639355-2.338644626-1.636194592-4.875745664-2.806944649-7.602736651-3.509394683-2.729846475-.70102229-5.342617943-1.205015912-7.835458918-1.519119586v-2.34007237h47.485336766l110.880024611,129.592037109v-79.532477962c0-6.234957926-.081381406-12.200072241-.234150011-17.895342945-.157051837-5.689559729-.859501871-10.175531289-2.105922359-13.45077596-1.560524161-4.363185579-4.327491979-7.912557093-8.303758941-10.642403567-3.976266962-2.726990987-9.70865901-4.638740165-17.192892911-5.730964304v-2.34007237h58.012093071v2.34007237c-5.772368879.782403697-10.4096813,2.261546452-13.919075983,4.443139241Z"/><path class="b" d="M1284.853872082,469.421841444c-3.589348346,1.092224139-7.057338454,1.988847353-10.4096813,2.689869643-3.355198334.702450034-7.602736651,1.133628714-12.748325926,1.286397319-5.927992972,0-11.227778596.039976831-15.906495592.117075006-4.678716996.081381406-9.203237644.157051837-13.567850966.234150011-4.36746881.079953662-8.88913397.117075006-13.567850966.117075006h-28.537746513v.063802309c-1.122563698.01606212-2.075582799.031499601-2.499444291.041583043-7.261505842.211395342-14.054533193.667113371-20.348920961,1.384465483-8.933572501,1.020658472-16.892888209,2.342660156-23.875448572,3.968057434-6.977563259,1.625932682-13.124357995,3.475485764-18.431996211,5.546160693-2.376836777.928925922-4.557001823,1.860975034-6.706113437,2.795879633-1.703833963.727167852-3.26917676,1.151921683-4.91001152,1.158346531-1.858565716.007227954-4.061753132-.844421325-5.704372572-2.237810208-2.528713042-1.992059777-4.842193681-3.972519134-7.553657952-5.940128796-3.219562657-2.332309012-6.947759104-4.415476701-11.180306109-6.246826048-4.235402493-1.830724708-9.063318734-3.319683203-14.481964044-4.469374036-3.818144317-.80792462-7.93861342-1.321287812-12.343203574-1.559364119-.694597442-.030607261-3.846522622-.115558028-5.063315529-.115558028-10.407519939,0-19.40214824,1.10587694-27.602395743,3.272121482-8.268065342,2.184448277-15.672345581,5.108467932-22.222834925,8.772058964-6.5490616,3.665018776-12.244332304,7.916840325-17.075817905,12.748325926-4.835768833,4.835768833-8.88913397,9.904259934-12.164378642,15.204045558-2.806944649,4.525948391-5.109895676,9.006208976-6.900286617,13.45077596-1.794674173,4.444566985-3.198146497,8.696388534-4.210416973,12.74975367-1.016553708,4.056220625-1.719003742,7.87543575-2.105922359,11.461928607-.391201848,3.589348346-.583947285,6.783211611-.583947285,9.59015626,0,12.632678664,2.181592789,24.211682278,6.5490616,34.737010839,4.364613322,10.526756306,10.643831311,19.572942112,18.830515247,27.135701932,8.18811168,7.565615308,18.129492957,13.413654617,29.825571576,17.544117928,11.696078619,4.133318799,24.795629562,6.199264327,39.29865283,6.199264327,8.732082133,0,16.450466046-.742426865,23.158007226-2.222997364,6.703257949-1.480570499,12.398528653-3.193863265,17.075817905-5.145589275,4.678716996-1.948870522,8.265209854-3.743544695,10.760906317-5.381167031,2.492840975-1.637622336,3.8963133-2.455719632,4.210416973-2.455719632.778120465,0,2.181592789,1.092224139,4.210416974,3.275244672,2.024540952,2.185876021,3.977694706,4.601618822,5.848039309,7.251511634h2.806944649l.702450034-51.463031472h-2.806944649c-1.403472325,6.707541181-4.017671537,13.216625949-7.836886662,19.532965281-3.823498357,6.314911588-8.500787609,11.893107287-14.034723245,16.724592888-5.538218867,4.835768833-11.853130456,8.736365365-18.947590253,11.696078619-7.098743029,2.963996486-14.70147968,4.444566985-22.808209953,4.444566985-10.292606294,0-19.648612543-2.104494615-28.070874234-6.316339332-8.420833947-4.210416973-15.595247406-9.941381277-21.52038489-17.192892911-5.927992972-7.251511634-10.489634962-15.789420587-13.683498228-25.613726858-3.198146497-9.825734015-4.795792002-20.351062577-4.795792002-31.580268917,0-10.602426736,1.52054733-20.935009862,4.561641991-30.993466145,3.04109466-10.059884027,7.404280239-19.064665258,13.099550943-27.018626927,5.690987472-7.953961668,12.748325926-14.345971431,21.169159873-19.181740264,7.512074909-4.309377478,14.160725532-7.146215516,25.335852188-7.146215516,9.493490937,0,12.106376543,1.43550733,17.334418032,4.045601779,5.41864531,2.712535079,10.246561551,6.225320654,14.481964044,10.544513871,4.232547005,4.320710195,7.960743452,9.235540351,11.180306109,14.738065619,3.216707169,5.507165436,5.845362289,11.053147661,7.877041962,16.64249761h4.011068221c3.349487358-4.962481111,7.683047249-9.531440289,12.986045298-14.420927989,5.307638216-4.885382936,11.454432952-9.248925451,18.431996211-13.085005802,6.982560363-3.834741841,14.941876071-6.953559314,23.875448572-9.361895693,7.012007583-1.885335915,14.636160393-3.012896717,22.848365252-3.417751367v90.585179453c0,4.678716996-.039976831,9.203237644-.117075006,13.567850966-.079953662,4.36746881-.157051837,8.343735773-.234150011,11.93022863-.079953662,3.589348346-.117075006,6.473391169-.117075006,8.654983958,0,2.495696463-.039976831,5.069918845-.117075006,7.719811657-.079953662,2.6527483-.234150011,5.108467932-.466872279,7.36858664-.234150011,2.261546452-.548253685,4.290370636-.936600046,6.080761577-.391201848,1.794674173-.975149133,3.081071492-1.754697342,3.8606197-3.587920602,4.056220625-7.251511634,6.630443006-10.993628585,7.718383913-3.742116951,1.093651883-7.642713482,1.871772347-11.696078619,2.34007237v2.338644626h76.024511022v-2.338644626c-3.432296509-.621068628-7.291488465-1.557668673-11.579003613-2.806944649-4.29179838-1.246420488-7.602736651-3.586492858-9.941381277-7.017361622-1.250703719-1.71472051-1.988847353-4.638740165-2.222997364-8.772058964-.234150011-4.130463311-.351225017-8.45795529-.351225017-12.983903682v-91.462706592c0-7.328609808.037121343-14.345971431.117075006-21.053512611.077098174-6.703257949.117075006-12.005899061.117075006-15.906495592h15.439623313c2.181592789,0,4.363185579.039976831,6.5490616.117075006,2.183020533.081381406,4.755815171.117075006,7.719811657.117075006,5.925137484.157051837,10.796599916.742426865,14.620098274,1.754697342,3.819215125,1.016553708,7.36858664,3.081071492,10.643831311,6.199264327,1.246420488,1.092224139,2.725563243,2.769823306,4.444566985,5.028514269,1.713292766,2.262974196,3.467990108,4.718693828,5.262664281,7.36858664,1.790390941,2.654176044,3.545088283,5.496814292,5.262664281,8.537908953,1.71472051,3.04109466,3.195291009,5.965114315,4.444566985,8.772058964l2.105922359-.70102229-7.485661645-45.614992162Z"/><path class="b" d="M530.148319237,776.737485042h12.631607856v55.683531887h-8.48338698v-29.971915333c0-1.145050666.011957356-2.515863347.037389045-4.110921065.024717818-1.593451507.056038951-3.282651094.093427996-5.064564805.037389045-1.780396733.074778091-3.580157244.112167136-5.39946.020345352-.990408147.038370619-1.954492264.054968143-2.901264985-.312943632,1.092134905-.609200506,2.16285365-.951948293,3.292913003-.585910433,1.931380658-1.158524999,3.793961904-1.719092976,5.587832971s-1.096418137,3.432207275-1.606925841,4.915097858c-.511221576,1.481373605-.941061746,2.708698017-1.289342041,3.680367024l-11.398304767,29.971915333h-7.287472935l-11.547771714-29.971915333c-.373711985-.946237317-.80346292-2.149647018-1.289342041-3.605588933-.485789886-1.458975871-1.015750602-3.077948302-1.588275935-4.858345035-.573239205-1.781824477-1.158524999-3.638516279-1.756482022-5.569807703-.32338401-1.04359161-.646589551-2.081650711-.969973561-3.121940663.019274544.743676141.037745981,1.504128275.054432739,2.299738603.037299811,1.781824477.074688857,3.5831912.112077902,5.400887744.037389045,1.819302756.074778091,3.544374411.112077902,5.176731941.037389045,1.630929786.056128185,3.05849529.056128185,4.278324046v29.971915333h-8.296530987v-55.683531887h12.556829766l12.145728736,31.952642392c.348369529.947754295.740731419,2.14366834,1.177264139,3.5876529.435729613,1.445590772.890198367,3.015127567,1.364030897,4.708788854.473118659,1.695178265.921608734,3.363497096,1.345380992,5.007811982.08459383.328648816.158301113.6217825.238879413.937492386.071208731-.274216077.135367975-.521394252.209610662-.807389216.423058386-1.630929786.871459227-3.293180705,1.345380992-4.98835897.473118659-1.693750521.934279962-3.288719006,1.382680803-4.783566944.448490075-1.494847939.846830643-2.714676695,1.195914045-3.66243099l11.958872744-31.952642392ZM603.939214049,776.737485042l20.180625641,55.683531887h-9.230810949l-5.137736683-14.686934538h-21.873929991l-4.978364762,14.686934538h-9.230721715l19.806913656-55.683531887h10.464024805ZM604.051291951,801.440043544c-.847544515-2.515863347-1.775131927-5.480127535-2.784189979-8.894398776-.778388167-2.632492182-1.651810542-5.683402583-2.615359255-9.131671977-.937403152,3.497883497-1.798511235,6.592072387-2.579308719,9.261685913-1.008968818,3.451660286-1.899970291,6.372645985-2.672022844,8.76438484l-3.116229687,9.193421904h16.983103781l-3.215993297-9.193421904ZM684.113909096,809.900408152l12.280918243,22.520608777h-9.67921179l-11.296934945-21.060562097c-.163119749.002052382-.309820442.020434586-.475081807.020434586h-11.360915721v21.040127512h-8.520776025v-55.683531887h19.956469837c4.285016596,0,7.859909034.741445291,10.725569654,2.224335874,2.864946748,1.481373605,5.007811982,3.544285177,6.42788183,6.184273015,1.420159082,2.641415582,2.130194006,5.668500505,2.130194006,9.081254768,0,3.438185953-.716727474,6.445817864-2.148843912,9.025929689-1.43283031,2.577167103-3.581674222,4.577347174-6.44662097,5.997417022-.499442688.247535111-1.049391819.445366885-1.592648401.649712741ZM663.582683076,804.093416482h10.538713661c2.740108384,0,4.951773031-.391648018,6.633476962-1.177978011,1.681703931-.783296037,2.920985699-1.910410669,3.718469941-3.381343896.79677037-1.469416249,1.195914045-3.237855627,1.195914045-5.306745876,0-2.092804961-.399143674-3.898633384-1.195914045-5.418913012-.797484242-1.51876265-2.04345856-2.696651427-3.737119847-3.532327821-1.694464393-.834159416-3.924065073-1.251149889-6.689515913-1.251149889h-10.464024805v20.068458505ZM1584.42462927,776.737485042l20.180625641,55.683531887h-9.230721715l-5.137736683-14.686934538h-21.873929991l-4.978364762,14.686934538h-9.230810949l19.806913656-55.683531887h10.464024805ZM1584.536796406,801.440043544c-.847633749-2.515863347-1.775131927-5.480127535-2.784189979-8.894398776-.778388167-2.632492182-1.651810542-5.683402583-2.615359255-9.131671977-.937403152,3.497883497-1.798511235,6.592072387-2.579308719,9.261685913-1.009058052,3.451660286-1.899970291,6.372645985-2.672022844,8.76438484l-3.116229687,9.193421904h16.983103781l-3.215993297-9.193421904ZM284.651758777,789.611184736c2.092715727,4.149737855,3.139252058,9.114182113,3.139252058,14.893332776,0,5.806010096-1.053139647,10.788390389-3.15781273,14.948568621-2.105565423,4.16169521-5.157368163,7.362251026-9.156122093,9.604522934-3.99875393,2.242271908-8.826313235,3.363407862-14.481607108,3.363407862h-18.087731446v-55.683531887h18.648477891c5.480752173,0,10.176959033,1.109178598,14.088977516,3.326018817,3.911304611,2.218446431,6.913850185,5.400976978,9.006565912,9.547680877ZM279.419790992,804.504517512c0-4.358991581-.691385018-8.04685426-2.074155055-11.061981827-1.382770037-3.013610589-3.438185953-5.306745876-6.166426215-6.876371905-2.728061795-1.569626029-6.122880024-2.35434981-10.183740816-2.35434981h-9.566955421v40.734963266h9.118643813c4.210238506,0,7.710531321-.784813015,10.50141385-2.354439044,2.790168657-1.569626029,4.882884384-3.88069735,6.278325649-6.931696984,1.394727393-3.052516612,2.092894195-6.770183447,2.092894195-11.156123695ZM399.618522041,821.994381169c-1.544997446,0-2.852810924.52915761-3.923975839,1.589079041-1.071878787,1.058315219-1.606925841,2.348371132-1.606925841,3.867133782,0,1.545711318.535047054,2.853703264,1.606925841,3.924065073,1.071164915,1.070272575,2.378978393,1.606925841,3.923975839,1.606925841,1.51965499,0,2.814975709-.536653265,3.886676028-1.606925841,1.070986447-1.070361809,1.606925841-2.378353755,1.606925841-3.924065073,0-1.51876265-.535939393-2.808818563-1.606925841-3.867133782-1.071700319-1.059921431-2.367021038-1.589079041-3.886676028-1.589079041ZM1667.199603026,832.421016929l-11.296934945-21.060562097c-.163119749.002052382-.309820442.020434586-.475081807.020434586h-11.360915721v21.040127512h-8.520776025v-55.683531887h19.956469837c4.28421349,0,7.859909034.741445291,10.725569654,2.224335874,2.864143642,1.481373605,5.007811982,3.544285177,6.42788183,6.184273015,1.420159082,2.641415582,2.130194006,5.668500505,2.130194006,9.081254768,0,3.438185953-.716013602,6.445817864-2.14813004,9.025929689-1.433544182,2.577167103-3.583101966,4.577347174-6.447334842,5.997417022-.499442688.247535111-1.049391819.445366885-1.592648401.649712741l12.280918243,22.520608777h-9.67921179ZM1644.066670554,804.093416482h10.538713661c2.740108384,0,4.952486903-.391648018,6.63276309-1.177978011,1.683131675-.783296037,2.920896465-1.910410669,3.719183813-3.381343896.79677037-1.469416249,1.195914045-3.237855627,1.195914045-5.306745876,0-2.092804961-.399143674-3.898633384-1.195914045-5.418913012-.798287348-1.51876265-2.04345856-2.696651427-3.737209081-3.532327821-1.695089031-.834159416-3.923975839-1.251149889-6.689426679-1.251149889h-10.464024805v20.068458505ZM349.972116306,809.900408152l12.280918243,22.520608777h-9.67921179l-11.297024179-21.060562097c-.163119749.002052382-.309820442.020434586-.475081807.020434586h-11.360915721v21.040127512h-8.520776025v-55.683531887h19.956469837c4.285016596,0,7.859909034.741445291,10.725748122,2.224335874,2.86476828,1.481373605,5.007633514,3.544285177,6.427703362,6.184273015,1.420248316,2.641415582,2.130194006,5.668500505,2.130194006,9.081254768,0,3.438185953-.716727474,6.445817864-2.148754678,9.025929689-1.432919544,2.577167103-3.58185269,4.577347174-6.44662097,5.997417022-.499353454.247535111-1.049391819.445366885-1.592648401.649712741ZM329.440801052,804.093416482h10.538892129c2.739840682,0,4.951594563-.391648018,6.633298494-1.177978011,1.681703931-.783296037,2.920985699-1.910410669,3.718559175-3.381343896.796681136-1.469416249,1.195735577-3.237855627,1.195735577-5.306745876,0-2.092804961-.39905444-3.898633384-1.195735577-5.418913012-.797573476-1.51876265-2.04345856-2.696651427-3.737119847-3.532327821-1.694553627-.834159416-3.924154307-1.251149889-6.689694381-1.251149889h-10.463935571v20.068458505ZM1168.73215318,807.942703465h24.627869645v-7.287472935h-24.627869645v-16.592972741h26.533818614v-7.324772746h-35.054505405v55.683531887h35.278661209v-7.324772746h-26.757974418v-17.153540718ZM1379.189199546,806.093596553c-1.595057719-1.209388378-3.332800601-2.193014741-5.21331788-2.953913044-1.881320385-.759381325-3.706512585-1.363317025-5.474951963-1.811717866l-5.418913012-1.420159082c-1.420069848-.373711985-2.908939109-.878954883-4.46589391-1.512783972-1.557579439-.636773812-2.877617976-1.494847939-3.961364884-2.580111825-1.083746909-1.082319165-1.62566498-2.508367691-1.62566498-4.278324046,0-1.569626029.454468753-2.971759844,1.364030897-4.203545956.908937506-1.234730834,2.192211635-2.198904185,3.849286983-2.897070987,1.656361476-.69656059,3.606392039-1.046357863,5.848663947-1.046357863,3.163880642,0,5.785843213.698077568,7.866690818,2.092804961,2.080133733,1.396155137,3.257308638,3.363407862,3.531613949,5.904702898h8.296530987c-.074778091-2.964353422-.941061746-5.605769004-2.597333987-7.922819003-1.657075348-2.316960765-3.936736301-4.142242199-6.83898286-5.474148857-2.903049665-1.333423636-6.259764977-2.000090837-10.071662915-2.000090837-3.737119847,0-7.094638265.666667201-10.071662915,2.000090837-2.977738522,1.331906658-5.332088332,3.200466581-7.063138664,5.605769004-1.731853438,2.403696211-2.597333987,5.212514774-2.597333987,8.426544923,0,3.811897937,1.276581579,6.913671717,3.830547843,9.305499806,2.553252392,2.391738855,6.110208796,4.198995022,10.669619937,5.418823778l6.502570687,1.793871067c2.018116104.523178932,3.817876615,1.127114632,5.400263106,1.813234844,1.581494151.684692469,2.84022893,1.54419434,3.774508892,2.577167104.934279962,1.034400508,1.401419943,2.361845466,1.401419943,3.980817896,0,1.793781833-.535939394,3.36938654-1.607015075,4.728241865-1.071789553,1.357338347-2.522555897,2.403696211-4.353726775,3.139162824-1.831260112.73403887-3.930757623,1.101772176-6.297154023,1.101772176-2.11823665,0-4.086203248-.32293784-5.904702898-.971669007-1.819213522-.647303423-3.295411555-1.630929786-4.428504865-2.952396066-1.133896416-1.319949302-1.787892389-2.989695877-1.96198792-5.007722748h-8.558075836c.174095531,3.388839552,1.127114632,6.309736016,2.858878836,8.762867862,1.731050332,2.45455959,4.129570971,4.342572525,7.194044939,5.662521827s6.676755451,1.980637825,10.83773679,1.980637825c4.359794687,0,8.078264628-.704056246,11.155409823-2.112168739,3.076431324-1.406684748,5.424802456-3.344044084,7.044488758-5.81056103,1.61897243-2.466516946,2.429217134-5.269356831,2.429217134-8.408608889,0-2.515863347-.49257167-4.665421131-1.476198033-6.445817864-.984340235-1.781913711-2.273682275-3.27676165-3.867936888-4.484543816ZM1128.973320621,776.737485042h-10.83773679l-15.621303734,17.303007665c-1.494847939,1.695178265-2.903049665,3.339493151-4.222998967,4.933033891-1.320663174,1.595057719-2.585376631,3.213940915-3.793158798,4.858345035-.435015741.59188911-.871726929,1.215188588-1.308348882,1.836078748l.131084743-11.141667788v-17.788797551h-8.520686791v55.683531887h8.520686791v-17.451225336l7.809402591-8.397276171,17.976992054,25.848501507h10.09031282l-22.133422458-31.559209694,21.909177421-24.124322193ZM1300.749302659,798.599814614h5.979480989l6.166247747-21.862329572h-8.85700973l-3.288719006,21.862329572ZM750.351859828,794.488982782c-1.096507371,1.868559923-2.086826283,3.705709479-2.971045972,5.511537902-.456699603.932584516-.921876436,1.987598077-1.394816627,3.155314178-.464909131-1.12863161-.921876436-2.150717826-1.370634213-3.06117231-.885022795-1.793781833-1.912730753-3.66243099-3.083213108-5.60567977l-10.464024805-17.75149774h-9.940756639l20.51694858,33.522268421v22.161263466h8.520686791v-22.161263466l20.442259723-33.522268421h-9.903456828l-10.351946903,17.75149774ZM1257.062121795,809.900408152l12.280918243,22.520608777h-9.67921179l-11.296934945-21.060562097c-.163119749.002052382-.309820442.020434586-.475081807.020434586h-11.361004955v21.040127512h-8.520686791v-55.683531887h19.956380603c4.285016596,0,7.859998268.741445291,10.725658888,2.224335874,2.864857514,1.481373605,5.007811982,3.544285177,6.42788183,6.184273015,1.420159082,2.641415582,2.130194006,5.668500505,2.130194006,9.081254768,0,3.438185953-.716816708,6.445817864-2.148843912,9.025929689-1.43283031,2.577167103-3.581674222,4.577347174-6.44662097,5.997417022-.499442688.247535111-1.049391819.445366885-1.592648401.649712741ZM1236.530806541,804.093416482h10.538802895c2.740108384,0,4.951683797-.391648018,6.633476962-1.177978011,1.681703931-.783296037,2.920896465-1.910410669,3.718469941-3.381343896.796681136-1.469416249,1.195824811-3.237855627,1.195824811-5.306745876,0-2.092804961-.399143674-3.898633384-1.195824811-5.418913012-.797573476-1.51876265-2.043547794-2.696651427-3.737209081-3.532327821-1.694375159-.834159416-3.923975839-1.251149889-6.689515913-1.251149889h-10.464024805v20.068458505ZM1028.085897602,776.737485042h-8.520686791v55.683531887h33.746424225v-7.324772746h-25.225737434v-48.35875914ZM1514.128762468,808.652738389c-.448400841,1.968769703-.903583466,4.012228263-1.364030897,6.128947936-.461161303,2.11823665-.890912239,4.260388013-1.289342041,6.42788183-.179717272.976219941-.359077609,1.952350648-.538527179,2.928570589-.188729906-.976219941-.367644073-1.952350648-.563869635-2.928570589-.436532719-2.167493818-.878241011-4.30964518-1.326731086-6.42788183-.448400841-2.116719673-.934279962-4.160178232-1.457458893-6.128947936l-8.184363852-31.915253347h-9.342888851l-8.259141942,31.915253347c-.523178932,1.968769703-1.008968818,4.012228263-1.457458893,6.128947936-.448490075,2.11823665-.884933561,4.260388013-1.307991946,6.42788183-.20041956,1.024941704-.388435594,2.049972642-.583144179,3.074914346-.186052886-1.024941704-.362379267-2.049972642-.556730915-3.074914346-.41110103-2.167493818-.82889461-4.30964518-1.251952995-6.42788183-.423772258-2.116719673-.884933561-4.160178232-1.382680803-6.128947936l-8.034896905-31.915253347h-8.969176866l15.098124802,55.683531887h9.866067783l8.819620685-32.999000255c.772141787-2.889575331,1.413466532-5.816539708,1.924688108-8.782320874.225048144-1.306653436.462945983-2.672915184.709767222-4.081295378.270468249,1.534200132.538527179,3.011468973.803730622,4.417618317.572614567,3.040559256,1.195914045,5.855356497,1.868649157,8.445997934l8.85700973,32.999000255h9.828678737l15.172902893-55.683531887h-9.043954957l-8.034896905,31.915253347ZM898.147275644,808.652738389c-.448400841,1.968769703-.903583466,4.012228263-1.364030897,6.128947936-.461161303,2.11823665-.890912239,4.260388013-1.289342041,6.42788183-.179806506.976219941-.359077609,1.952439882-.538616413,2.928659823-.188729906-.976219941-.367554839-1.952439882-.563780401-2.928659823-.436532719-2.167493818-.878241011-4.30964518-1.326731086-6.42788183-.448490075-2.116719673-.934279962-4.160178232-1.457458893-6.128947936l-8.184363852-31.915253347h-9.342888851l-8.259141942,31.915253347c-.523178932,1.968769703-1.009058052,4.012228263-1.457458893,6.128947936-.448490075,2.11823665-.884933561,4.260388013-1.307991946,6.42788183-.20041956,1.025030938-.388524828,2.049972642-.583233413,3.07500358-.185963652-1.025030938-.362200799-2.049972642-.556641681-3.07500358-.41110103-2.167493818-.82889461-4.30964518-1.251952995-6.42788183-.423772258-2.116719673-.884933561-4.160178232-1.382770037-6.128947936l-8.034807671-31.915253347h-8.969176866l15.098035568,55.683531887h9.866157017l8.819620685-32.999000255c.772141787-2.889575331,1.413377298-5.816539708,1.924688108-8.782320874.225048144-1.306653436.462945983-2.672915184.709767222-4.081295378.270468249,1.534200132.538527179,3.011468973.803730622,4.417618317.572525333,3.040559256,1.195914045,5.855356497,1.868559923,8.445997934l8.857098964,32.999000255h9.828678737l15.172902893-55.683531887h-9.043954957l-8.034896905,31.915253347ZM968.443142447,776.737485042l20.180625641,55.683531887h-9.230721715l-5.137736683-14.686934538h-21.873929991l-4.978364762,14.686934538h-9.230810949l19.806913656-55.683531887h10.464024805ZM968.555309582,801.440043544c-.847633749-2.515863347-1.775221161-5.480127535-2.784189979-8.894398776-.778388167-2.632492182-1.651810542-5.683402583-2.615359255-9.131671977-.937403152,3.497883497-1.798511235,6.592072387-2.579308719,9.261685913-1.009058052,3.451660286-1.899970291,6.372645985-2.672022844,8.76438484l-3.116229687,9.193421904h16.983103781l-3.215993297-9.193421904Z"/></svg>