<?xml version="1.0" encoding="UTF-8"?>
<svg id="a" xmlns="http://www.w3.org/2000/svg" version="1.1" viewBox="0 0 1920 1080">
  <!-- Generator: Adobe Illustrator 29.8.3, SVG Export Plug-In . SVG Version: 2.1.1 Build 3)  -->
  <defs>
    <style>
      .st0 {
        fill: #fff;
      }
    </style>
  </defs>
  <path class="st0" d="M400.3,304.4c-2-7.5-5.1-14.5-9.1-21.1-4.1-6.5-8.9-12.2-14.4-17.1-5.5-4.8-11.8-8.7-18.7-11.5-6.9-2.8-14.3-4.2-22.1-4.2s-20.4,2.4-28.8,7.3c-8.4,4.8-15.5,11.2-21.2,19.2-5.7,8-10.1,17-13.1,27-3,10.1-4.6,20.4-4.6,31s1.6,21.8,4.8,31.6c3.2,9.8,7.8,18.4,13.7,25.6,5.9,7.3,13.1,13,21.5,17.2,8.4,4.2,17.8,6.3,28.1,6.3s15.7-1.5,22.8-4.4c7.1-3,13.4-6.9,18.9-11.7,5.5-4.8,10.2-10.4,14-16.7,3.8-6.3,6.4-12.8,7.8-19.5h2.8l-.7,51.5h-2.8c-1.9-2.6-3.8-5.1-5.8-7.3-2-2.2-3.4-3.3-4.2-3.3s-1.7.8-4.2,2.5c-2.5,1.6-6.1,3.4-10.8,5.4-4.7,2-10.4,3.7-17.1,5.1-6.7,1.5-14.4,2.2-23.2,2.2-14.5,0-27.6-2.1-39.3-6.2-11.7-4.1-21.6-10-29.8-17.5-8.2-7.6-14.5-16.6-18.8-27.1-4.4-10.5-6.5-22.1-6.5-34.7s.2-6,.6-9.6c.4-3.6,1.1-7.4,2.1-11.5,1-4.1,2.4-8.3,4.2-12.7,1.8-4.4,4.1-8.9,6.9-13.5,3.3-5.3,7.3-10.4,12.2-15.2,4.8-4.8,10.5-9.1,17.1-12.7,6.5-3.7,14-6.6,22.2-8.8,8.3-2.2,17.5-3.3,27.8-3.3s17.5.9,24.6,2.6c7,1.7,12.9,3.6,17.5,5.6,4.7,2,8.3,3.9,10.8,5.6,2.5,1.7,3.9,2.6,4.2,2.6s.9-.4,1.8-1.1c.9-.7,1.8-1.6,2.8-2.6,1-1,2.1-2.2,3.2-3.5,1.1-1.3,2.1-2.7,3-4.1h2.6v52.4l-2.8.2h0Z"/>
  <path class="st0" d="M579.2,367.8c-4.7,10.6-11,19.8-19.1,27.6-8,7.8-17.4,13.8-28.1,18-10.7,4.2-22,6.3-34,6.3s-23.1-2.1-33.7-6.2c-10.6-4.1-19.9-10-27.8-17.5-8-7.6-14.2-16.6-18.8-27.1-4.6-10.5-6.9-22.1-6.9-34.7s2.4-25.5,7.3-36.1c4.8-10.7,11.3-19.7,19.5-27.1,8.2-7.4,17.8-13.1,28.8-17.1,11-4,22.6-6,34.7-6s25.1,2.3,35.7,7c10.5,4.7,19.5,11,26.8,18.8,7.3,7.9,12.9,17,16.8,27.3,3.9,10.3,5.8,21.1,5.8,32.3s-2.3,24-7,34.6h0ZM553.5,304.7c-2.4-9.7-6.1-18.4-11-26.3-4.9-7.9-11-14.3-18.4-19.2-7.3-4.9-16-7.4-26-7.4s-18.9,2.5-26.3,7.4c-7.4,4.9-13.5,11.3-18.2,19.1-4.8,7.8-8.3,16.6-10.5,26.6-2.3,9.9-3.4,19.9-3.4,30.1s1.2,20.8,3.7,30.6c2.5,9.8,6.2,18.5,11.1,26,4.9,7.5,11.1,13.5,18.5,18,7.4,4.5,16,6.8,25.8,6.8s18.4-2.5,25.6-7.5c7.3-5,13.3-11.4,18.1-19.3,4.8-7.9,8.5-16.7,10.9-26.6,2.4-9.8,3.6-19.6,3.6-29.5s-1.2-19.1-3.6-28.8h0Z"/>
  <path class="st0" d="M752,256.9c-3.4,2.2-6,5.5-7.8,10.1-.5,1.1-.9,2.9-1.3,5.4-.4,2.5-.7,5.4-1.1,8.7-.3,3.3-.5,6.7-.7,10.4-.2,3.7-.2,7.3-.2,10.9-.2,6.7-.4,14.2-.6,22.5-.2,8.3-.5,17.6-.8,28.1-.2,3-.4,6.7-.6,11.2-.2,4.5-1,9.3-2.2,14.4-1.2,5.1-3.2,10.1-6,15.2-2.7,5.1-6.6,9.7-11.6,13.8-5,4.1-11.4,7.4-19.2,9.8-7.8,2.4-17.4,3.6-28.8,3.6s-20.7-1.2-28.4-3.5c-7.7-2.3-14.1-5.5-19.1-9.5-5-4-8.9-8.3-11.6-13.1-2.7-4.8-4.8-9.4-6.1-14-1.3-4.6-2.1-8.8-2.3-12.6-.2-3.8-.4-6.7-.4-8.5,0-4.4,0-10.1.1-17.1,0-7,.1-14.8.1-23.4v-39.5c0-2.8-.1-5.4-.4-7.8-.2-2.4-.6-4.6-1.1-6.5-.5-1.9-1.2-3.5-2.1-4.6-2.2-2.6-4.9-4.6-8.1-5.7-3.2-1.2-6.8-2-10.9-2.5v-2.3h69.7v2.3c-2.2.3-4.5.8-7,1.4-2.5.6-4.8,1.6-6.8,2.9-2,1.3-3.7,3.2-5.1,5.5s-2.2,5.3-2.3,8.9c-.2,4.1-.3,7.6-.4,10.8,0,3.1-.1,6.2-.1,9.1v46.6c0,3.6,0,7.1.1,10.4,0,3.4.1,6.9.1,10.6.2,8.3,1.4,15.8,3.7,22.6s5.6,12.6,9.8,17.3c4.2,4.8,9.4,8.4,15.4,11,6.1,2.6,13,3.9,20.8,3.9s16.4-1,22.6-3c6.2-2,11.3-4.8,15.4-8.4,4.1-3.6,7.4-7.7,9.8-12.4,2.4-4.7,4.2-9.7,5.4-15,1.2-5.3,1.9-10.7,2.3-16.3.4-5.5.6-11,.6-16.3v-39.8c0-3.1,0-6.3-.1-9.6,0-3.3-.2-6.4-.4-9.4-.2-3-.4-5.7-.7-8.3-.3-2.6-.8-4.6-1.4-6.2-1.6-4.4-4.3-7.9-8.1-10.6-3.8-2.7-9.5-4.6-17-5.7v-2.3h58v2.3c-5.8.8-10.3,2.3-13.7,4.4h0Z"/>
  <path class="st0" d="M897.1,418.6c-1.4-1.4-2.4-2.5-3-3.2-.6-.7-1.3-1.5-2.1-2.5-.8-.9-1.8-2.3-2.9-4.1-1.2-1.8-3-4.5-5.5-8.1-3-4.4-5.6-8.3-7.8-11.8-2.3-3.5-4.6-7-6.9-10.4-2.3-3.4-4.9-6.9-7.6-10.4-2.7-3.5-6-7.4-9.7-11.8-3.1-3.6-6.5-6.9-10.2-10.1-3.7-3.1-7.5-5.1-11.6-5.8-3-.6-5.2-.9-6.8-.9s-3.2,0-5.4-.2v26.4c0,7.5,0,13.8.2,18.9.2,5,.3,9.3.5,12.9.2,3.6,1,6.5,2.6,8.9,1.2,2,3.7,4.1,7.3,6.2,3.6,2.1,8.6,3.3,15,3.6v2.3h-74.9v-2.3c3.9-.6,7.6-1.6,11.2-2.8,3.6-1.2,6.4-3.1,8.4-5.6.8-.9,1.4-2.3,1.9-4.2.5-1.9.8-4,1.1-6.3s.4-4.8.6-7.5c.2-2.6.2-5.2.2-7.7s0-5.1.1-8.9c0-3.7.2-7.8.2-12.3,0-4.4.1-9,.1-13.7v-59.2c0-2.8,0-5.7-.1-8.5,0-2.9-.2-5.6-.5-8.2-.2-2.6-.6-4.9-1.2-7-.5-2.1-1.3-3.6-2.2-4.6-2.3-2.5-5-4.2-7.8-5-2.9-.9-6.4-1.6-10.6-2.2v-2.3h9.6c5.3,0,11.3,0,18-.1,6.7,0,13.4-.1,20.1-.1h16.4c10.4,0,19.7.3,27.8.9,8.1.6,15.5,2.7,22.2,6.3,6.9,3.6,12.4,8.5,16.6,14.6,4.2,6.2,6.3,13.9,6.3,23.3s-1.1,11-3.2,15.6c-2.1,4.6-4.9,8.7-8.4,12.2-3.5,3.5-7.6,6.5-12.3,9-4.7,2.5-9.6,4.6-14.7,6.3v.7c2.6,1.4,5.2,3.4,7.7,6.1,2.5,2.7,4.9,5.6,7.3,8.9,4.1,5.9,8.5,12.3,13.2,19.2,4.8,6.9,9,12.9,12.7,18.2,5.8,8.1,11.4,14,16.8,17.8,5.5,3.7,11.8,6.2,19.2,7.3v2.3h-48,0ZM873.9,272.8c-3.9-6.1-9.6-10.9-17.1-14.5-3.7-1.7-7.7-3-11.8-3.7-4.1-.8-8.5-1.2-13-1.2s-5.9,0-8,.2c-2,.2-3.6.3-4.7.5-.2.9-.3,1.8-.5,2.5-.2.7-.3,1.6-.4,2.7,0,1.1-.2,2.6-.2,4.6,0,2-.2,4.7-.4,8.3-.2,5.5-.3,11.6-.4,18.5,0,6.9-.1,13.5-.1,19.9v25.7c6.4,0,12.4-.3,17.9-.8,5.5-.5,10.9-1.7,16-3.4,5-1.6,9.3-3.7,12.9-6.3,3.6-2.6,6.5-5.7,8.8-9,2.3-3.4,3.9-7,5-10.9,1.1-3.9,1.6-8,1.6-12.2,0-7.8-2-14.7-5.8-20.8h0Z"/>
  <path class="st0" d="M1014.5,418.6v-2.3c.5,0,1.6-.2,3.4-.5,1.8-.3,3.7-.9,5.6-1.6,1.9-.8,3.7-1.9,5.1-3.3,1.5-1.4,2.2-3.2,2.2-5.4s-.4-3.7-1.3-6.9c-.9-3.2-2.1-7.1-3.6-11.7-1.6-4.6-3.4-9.7-5.4-15.3-2-5.6-4.2-11.5-6.5-17.5h-62.2c-2.3,5.9-4.6,11.6-6.8,17-2.2,5.4-4.4,10.8-6.5,16.3-3.3,8.4-4.9,14.3-4.9,17.8s.6,3.7,1.9,5c1.2,1.3,2.8,2.4,4.8,3.3,1.9.9,4.1,1.5,6.3,1.9,2.3.4,4.4.7,6.4,1.1v2.3h-49.8v-2.6c4.1-.5,7.5-1.6,10.4-3.3,2.9-1.7,4.6-2.9,5-3.5,1.1-1.1,2.9-3.7,5.4-7.7,2.5-4.1,5.5-10.1,9.1-18,3.3-7.3,6.9-15.7,11-25,4.1-9.4,8.2-19,12.5-28.9,4.3-9.9,8.5-19.9,12.7-29.9,4.2-10.1,8.2-19.5,11.9-28.2l-2.3-5.1c2.8-1.2,5.3-2.7,7.6-4.4,2.3-1.7,4.2-3.5,6-5.4,1.7-1.9,3.2-3.7,4.3-5.4,1.2-1.7,2.1-3.1,2.7-4.2h1.9c4.8,12.9,9.4,25.2,13.8,36.8,4.4,11.6,8.5,22.8,12.5,33.6,4,10.8,7.8,21.2,11.6,31.2,3.7,10.1,7.5,20,11.2,29.8,1.7,4.8,3.3,8.9,4.8,12,1.5,3.2,3.2,6.8,5,10.9.3.6,1,1.7,2.1,3.3,1.1,1.6,2.5,3.2,4.3,4.8,1.8,1.6,4,3.1,6.7,4.3,2.6,1.2,5.8,2,9.4,2.1v2.8h-68.3,0ZM983.8,276.8c-.9,2-2.3,5.2-4.1,9.6-1.8,4.4-4,9.7-6.7,15.9-2.7,6.2-5.6,13.3-8.8,21.2-3.2,7.9-6.7,16.4-10.4,25.6h58.2c-2.7-7-5.3-14-8.1-21.1-2.7-7-5.4-13.8-8-20.2-2.6-6.5-4.9-12.4-7-17.8-2.1-5.4-3.9-9.8-5.3-13.2h0Z"/>
  <path class="st0" d="M1230,342.7c-3.1,1-5.4,2.6-6.8,4.8-1.1,1.7-1.7,4.4-1.9,8-.2,3.6-.2,7.2-.2,10.8v34.2c-1.1.9-3.8,2.5-8.1,4.7-4.3,2.2-9.5,4.4-15.7,6.7-6.2,2.3-13,4.2-20.5,5.7-7.5,1.6-15,2.3-22.5,2.3-14.8,0-28.1-1.9-39.8-5.7-11.7-3.8-21.6-9.4-29.6-16.8-8-7.4-14.2-16.5-18.5-27.1-4.3-10.7-6.4-22.6-6.4-35.9s.4-8.4,1.2-13.5c.8-5.1,2.1-10.4,4.1-16,1.9-5.6,4.7-11.3,8.2-17.1,3.5-5.8,7.9-11.2,13.2-16.4,7.5-7.3,16.7-13.2,27.6-17.7,10.9-4.4,24.2-6.7,39.8-6.7s17.6.8,24.8,2.5c7.2,1.6,13.2,3.4,18.1,5.4,4.9,2,8.7,3.7,11.3,5.4,2.6,1.6,4.1,2.5,4.4,2.5s1.2-.9,2.6-2.8c1.4-1.9,3.1-4.1,5.1-6.8h2.1v51h-2.8c-1.7-7-4.3-13.6-7.7-19.9-3.4-6.2-7.1-11.4-11-15.4-5-5.3-11.4-9.6-19.2-12.9-7.8-3.3-16.5-4.9-26.2-4.9s-19.6,2.3-27.8,6.9c-8.3,4.6-15.3,10.8-21.1,18.5-5.8,7.7-10.2,16.6-13.3,26.7-3.1,10.1-4.7,20.6-4.7,31.7s1.5,23.3,4.4,33.3c3,10.1,7.3,18.7,12.9,25.8,5.6,7.2,12.5,12.7,20.6,16.7,8.1,4,17.4,6,27.8,6s14.5-1.3,20.9-3.9c6.5-2.6,11.6-6.7,15.3-12.5,1.2-2,2.2-5.6,2.8-10.8.6-5.1.9-10.4.9-15.9s-.3-10.4-.8-14.7c-.5-4.4-2.1-8-4.8-10.8-3.6-4.1-9.9-6.5-18.9-7.3v-2.3h68.5v2.3c-2.7.3-5.5,1-8.7,2h0Z"/>
  <path class="st0" d="M1378.8,418.6h-143.2v-2.3c3.9-.6,7.5-1.6,10.9-3,3.4-1.4,6.1-3.4,8.3-5.8.8-.9,1.4-2.3,1.9-4.1.5-1.8.9-3.9,1.3-6.2.4-2.3.7-4.8.8-7.4.2-2.6.2-5.1.2-7.6s0-5.1.1-8.9c0-3.7.2-7.8.2-12.3,0-4.4.1-9,.1-13.7v-59.2c0-2.8,0-5.7-.1-8.7,0-3-.2-5.8-.5-8.4-.2-2.6-.6-5-1.2-7.1-.5-2.1-1.3-3.6-2.2-4.6-2.3-2.5-4.8-4.1-7.5-4.8-2.7-.7-6.1-1.4-10.3-2v-2.3h129.1l15.9,38.6-2.3,1.2c-12.6-15.7-24.5-26.4-35.6-31.8-2.7-1.2-7.6-2.3-14.7-3.3-7.2-.9-15.9-1.4-26.2-1.4s-6.7.1-10.2.4c-3.5.2-6,.5-7.6.8-.3,2.5-.6,7.6-.8,15.4-.2,7.8-.4,16.8-.4,27.1v15c0,4.1,0,7.4.1,9.9,0,2.6.1,4.6.1,6v2.6h4.7c2.3,0,5,0,8.1-.2,3-.2,6.1-.4,9.1-.6,3-.2,5.6-.6,7.6-1.1,4.7-1.1,8.6-2.6,11.7-4.4,3.1-1.9,5.6-4.1,7.6-6.8,1.9-2.6,3.5-5.7,4.7-9.2s2.2-7.4,3.2-11.8h2.8v73.7h-2.8c-1.2-5-3.2-10.1-5.7-15.4-2.6-5.3-5.3-9.3-8.1-11.9-2.5-2.2-5.5-4-9-5.4-3.5-1.4-7.6-2.3-12.3-2.6-2.3-.2-4.3-.3-5.8-.4-1.6,0-3.1-.1-4.7-.1h-10.8c-.3,2.2-.5,5.4-.5,9.6v28.1c0,2.5,0,4.9.1,7.1,0,2.3.1,4.2.1,5.7.2,5,.4,9.7.8,14.2.4,4.4,1.3,7.8,2.7,9.9,1.4,2.2,4.8,3.7,10.1,4.7,5.3.9,11.1,1.4,17.3,1.4s6,0,10.2-.2c4.1-.2,8.5-.5,13-1.2,5-.6,9.6-1.8,13.8-3.6,4.2-1.8,8.3-4.3,12.2-7.6,3.9-3.3,7.7-7.3,11.3-12,3.7-4.8,7.4-10.5,11.3-17.2l2.6.7-11.7,44.7h0Z"/>
  <path class="st0" d="M1500.1,361.6h10.8c-3.7,5.7-7.2,11.3-10.6,16.7-3.4,5.4-6.4,10.4-9,15-2.6,4.6-4.7,8.6-6.2,12.1-1.5,3.5-2.2,6.2-2.1,8.2.2,2.9,1.8,4.3,4.8,4.3s5.2-1.1,8.6-3.4c3.4-2.3,7.1-5.4,11-9.4,3.9-4,7.9-8.6,11.9-13.9,4-5.3,7.8-10.9,11.4-16.9l1,.3c-2.7,4.5-5.8,9.4-9.5,14.7-3.7,5.2-7.5,10.1-11.6,14.7-4.1,4.5-8.2,8.3-12.4,11.3-4.2,3-8.2,4.6-12.1,4.6s-5.6-.8-7.2-2.4-2.5-3.5-2.6-5.7c-.1-1.5,0-3.1.4-4.6.4-1.5.8-3,1.3-4.6l-.3-.2c-1.3,1.5-3,3.3-5,5.4-2,2-4.2,3.9-6.6,5.7-2.4,1.8-4.8,3.3-7.4,4.5-2.6,1.2-5.1,1.8-7.5,1.8-4.1,0-7-1.3-8.9-3.8-1.8-2.5-2.9-5.4-3.1-8.6-.3-4.5.8-9.5,3.2-15,2.5-5.5,5.8-10.6,9.8-15.4,4.1-4.8,8.6-8.8,13.6-12,5-3.2,9.8-4.8,14.4-4.8s4.2.3,5.9.9c1.7.6,3.1,1.4,4.3,2.5,1.2,1.1,2.1,2.2,2.8,3.6.7,1.3,1.3,2.7,1.7,4.1h.3l4.8-9.8h0ZM1449.2,408c.2,2.5.8,4.5,2,5.9,1.1,1.4,2.7,2.1,4.5,2.1s4-.7,6.5-2.1c2.4-1.4,5-3.2,7.6-5.5,2.6-2.3,5.1-5,7.6-8,2.5-3,4.7-6.3,6.5-9.7,1.9-3.4,3.3-6.9,4.4-10.4,1.1-3.5,1.5-6.9,1.3-10.1-.2-2.5-1-4.5-2.6-5.8-1.5-1.3-3.3-2-5.4-2-3.3,0-6.9,1.4-10.8,4.3-3.9,2.9-7.5,6.5-10.8,11-3.3,4.5-6,9.4-8.1,14.8-2.1,5.4-3,10.6-2.6,15.6h0Z"/>
  <path class="st0" d="M1545.9,361.6l-19.7,30.3.4.3c2.1-2.8,4.6-6,7.4-9.7,2.8-3.7,5.9-7.2,9.2-10.5,3.3-3.3,6.8-6.1,10.4-8.4,3.7-2.3,7.4-3.4,11.1-3.4s5.9.9,7.9,2.7c1.9,1.8,3,4.2,3.2,7,.1,1.8-.4,3.9-1.5,6.3-1.1,2.4-2.5,5-4.2,7.8-1.7,2.8-3.5,5.6-5.5,8.4-2,2.9-3.9,5.6-5.6,8.2-1.7,2.6-3.1,5-4.2,7.1-1.1,2.2-1.6,3.9-1.5,5.4.2,3.1,1.9,4.6,5,4.6s7.2-1.2,11-3.6c3.8-2.4,8.3-6.4,13.4-12,2.1-2.2,4.1-4.6,6.2-7.3,2.1-2.6,4.1-5.3,6-7.9,1.9-2.6,3.6-5.1,5.2-7.4,1.5-2.3,2.8-4.2,3.6-5.8l1.2.7c-2,3.3-4.5,7.3-7.7,11.8-3.2,4.6-6.6,9.1-10.4,13.5-2.2,2.6-4.5,5.2-6.9,7.6-2.4,2.4-4.8,4.6-7.2,6.4-2.4,1.8-4.8,3.3-7.2,4.3-2.4,1-4.8,1.6-7.3,1.6s-5.9-.9-8.1-2.6c-2.2-1.8-3.4-4.2-3.7-7.3-.2-3.3.8-6.9,3.2-10.8,2.4-3.9,5-7.9,7.9-11.8,2.9-4,5.6-7.8,8-11.4,2.4-3.6,3.5-6.8,3.3-9.6,0-1.3-.6-2.3-1.5-3-.9-.7-2.1-1-3.5-1-2.8,0-5.8,1-9.1,3.1-3.3,2-6.6,4.7-9.9,8.1-3.4,3.4-6.7,7.1-10,11.3-3.3,4.1-6.3,8.3-9.1,12.4-2.8,4.1-5.3,8.1-7.4,11.9-2.2,3.8-3.8,7-4.8,9.5h-10.3c2.5-4.9,5.2-9.8,8.1-14.8,2.9-5,5.8-10,8.6-14.9,2.9-4.9,5.6-9.7,8.2-14.2,2.6-4.6,4.9-8.8,7-12.5l10.7-.5h0Z"/>
  <path class="st0" d="M1691.1,304c-3.8,6.8-8,14.1-12.5,21.7-4.5,7.6-9.1,15.2-13.6,22.7-4.6,7.5-8.9,14.8-13.1,21.8-4.2,7-7.9,13.4-11.1,19.3-3.2,5.9-5.8,10.9-7.6,15.2-1.9,4.3-2.7,7.4-2.6,9.4,0,1.2.5,2.2,1.1,2.9.7.7,1.6,1.1,2.8,1.1,2.8,0,5.8-1.1,9.2-3.3,3.4-2.2,7.4-5.7,12-10.4,4-4.2,7.9-8.9,11.6-14,3.7-5.1,6.9-10.2,9.5-15.2l1.4.7c-.9,1.8-2,3.8-3.5,6.2-1.4,2.4-3,4.8-4.8,7.4-1.8,2.5-3.6,5.1-5.7,7.7-2,2.6-4.1,5.1-6.3,7.4-4.1,4.5-8.2,8.3-12.3,11.2-4.1,2.9-8,4.4-11.6,4.4s-6.2-.7-8-2.2c-1.8-1.5-2.8-3.4-3-5.7-.1-2.1.1-4.1.9-6.1.7-2,1.5-3.8,2.3-5.3l-.3-.2c-1.6,2-3.4,4.1-5.4,6.4-2,2.3-4.1,4.4-6.4,6.4-2.3,2-4.7,3.6-7.4,4.9-2.6,1.3-5.4,1.9-8.2,1.9s-7.1-1.2-9.4-3.6c-2.3-2.4-3.6-5.3-3.8-8.6-.3-4.6.9-9.7,3.7-15.2,2.8-5.5,6.5-10.7,10.9-15.4,4.5-4.7,9.3-8.7,14.6-11.9,5.3-3.2,10.3-4.8,15.1-4.8s6.4,1.1,8.7,3.3c2.3,2.2,3.4,5,3.6,8.4h.5l37.9-68.1h10.9ZM1637.1,372.2c-.2-2.6-.8-5-1.8-7-1-2-3.1-3-6.3-3s-4.6.8-7.2,2.3c-2.6,1.5-5.2,3.6-7.8,6.1-2.6,2.5-5.1,5.4-7.4,8.7-2.4,3.3-4.4,6.6-6.2,9.9-1.7,3.4-3.1,6.7-4.1,9.9-1,3.2-1.4,6.1-1.2,8.6.2,2.3.7,4.3,1.7,5.8,1,1.5,2.6,2.3,5,2.3s4.2-.8,6.7-2.3c2.5-1.5,5.1-3.6,7.8-6,2.7-2.5,5.3-5.3,7.8-8.5,2.5-3.2,4.8-6.4,6.8-9.6,2-3.2,3.6-6.3,4.7-9.4,1.2-3,1.7-5.7,1.5-7.9h0Z"/>
  <rect class="st0" x="240.9" y="706" width="1438.2" height="5.8"/>
  <path class="st0" d="M364,526c-2-7.5-5.1-14.5-9.1-21.1-4.1-6.5-8.9-12.2-14.4-17.1-5.5-4.8-11.8-8.7-18.7-11.5-6.9-2.8-14.3-4.2-22.1-4.2s-20.4,2.4-28.8,7.3c-8.4,4.8-15.5,11.2-21.2,19.2-5.7,8-10.1,17-13.1,27-3,10.1-4.6,20.4-4.6,31s1.6,21.8,4.8,31.6c3.2,9.8,7.8,18.4,13.7,25.6,5.9,7.3,13.1,13,21.5,17.2,8.4,4.2,17.8,6.3,28.1,6.3s15.7-1.5,22.8-4.4c7.1-3,13.4-6.9,18.9-11.7,5.5-4.8,10.2-10.4,14-16.7,3.8-6.3,6.4-12.8,7.8-19.5h2.8l-.7,51.5h-2.8c-1.9-2.6-3.8-5.1-5.8-7.3-2-2.2-3.4-3.3-4.2-3.3s-1.7.8-4.2,2.5c-2.5,1.6-6.1,3.4-10.8,5.4-4.7,2-10.4,3.7-17.1,5.1-6.7,1.5-14.4,2.2-23.2,2.2-14.5,0-27.6-2.1-39.3-6.2-11.7-4.1-21.6-10-29.8-17.5-8.2-7.6-14.5-16.6-18.8-27.1-4.4-10.5-6.5-22.1-6.5-34.7s.2-6,.6-9.6c.4-3.6,1.1-7.4,2.1-11.5,1-4.1,2.4-8.3,4.2-12.7,1.8-4.4,4.1-8.9,6.9-13.5,3.3-5.3,7.3-10.4,12.2-15.2,4.8-4.8,10.5-9.1,17.1-12.7,6.6-3.7,14-6.6,22.2-8.8,8.3-2.2,17.5-3.3,27.8-3.3s17.5.9,24.6,2.6c7,1.7,12.9,3.6,17.5,5.6,4.7,2,8.3,3.9,10.8,5.6,2.5,1.7,3.9,2.6,4.2,2.6s.9-.4,1.8-1.1c.9-.7,1.8-1.6,2.8-2.6,1-1,2.1-2.2,3.2-3.5,1.1-1.3,2.1-2.7,3-4.1h2.6v52.4l-2.8.2h0Z"/>
  <path class="st0" d="M542.8,589.4c-4.7,10.6-11,19.8-19.1,27.6-8,7.8-17.4,13.8-28.1,18-10.7,4.2-22,6.3-34,6.3s-23.1-2.1-33.7-6.2c-10.6-4.1-19.9-10-27.8-17.5-8-7.6-14.2-16.6-18.8-27.1-4.6-10.5-6.9-22.1-6.9-34.7s2.4-25.5,7.3-36.1c4.8-10.7,11.3-19.7,19.5-27.1,8.2-7.4,17.8-13.1,28.8-17.1,11-4,22.6-6,34.7-6s25.1,2.3,35.7,7c10.5,4.7,19.5,11,26.8,18.8,7.3,7.9,12.9,17,16.8,27.3,3.9,10.3,5.8,21.1,5.8,32.3s-2.3,24-7,34.6h0ZM517.2,526.3c-2.4-9.7-6.1-18.4-11-26.3-4.9-7.9-11-14.3-18.4-19.2-7.3-4.9-16-7.4-26-7.4s-18.9,2.5-26.3,7.4c-7.4,4.9-13.5,11.3-18.2,19.1-4.8,7.8-8.3,16.6-10.5,26.6-2.3,9.9-3.4,19.9-3.4,30.1s1.2,20.8,3.7,30.6c2.5,9.8,6.2,18.5,11.1,26,4.9,7.5,11.1,13.5,18.5,18,7.4,4.5,16,6.8,25.8,6.8s18.4-2.5,25.6-7.5c7.3-5,13.3-11.4,18.1-19.3,4.8-7.9,8.5-16.7,10.9-26.6,2.4-9.8,3.6-19.6,3.6-29.5s-1.2-19.1-3.6-28.8h0Z"/>
  <path class="st0" d="M717.2,478.5c-3.5,2.2-6.2,5.5-8.1,10.1-1.1,2.3-1.8,6.7-2.1,13-.3,6.3-.6,13.1-.9,20.2-.3,6.7-.6,14.6-.8,23.7-.2,9.1-.4,18.9-.4,29.4v15c0,5.5,0,11,.1,16.7,0,5.7.1,11.3.1,17v15.2c0,.6-.2,1.1-.6,1.5-.4.4-1,.6-1.8.6-1.3,0-2.7-.8-4.2-2.3-13.3-15.3-25.3-29.3-36.3-42.1-10.9-12.8-21.3-25-31.2-36.6-9.9-11.6-19.6-23-29.1-34-9.5-11.1-19.6-22.5-30.2-34.4v98.7c0,8,.2,15.1.6,21.5.4,6.4,1.4,11.2,2.9,14.3,1.7,3.6,4.4,6.3,8.1,8.1,3.7,1.8,8.7,3.1,15.1,3.9v2.3h-57.5v-2.3c3.7-.5,7.5-1.4,11.2-2.9,3.7-1.5,6.7-3.9,8.9-7.4,2.2-3.3,3.6-8.1,4.2-14.5.6-6.4,1.1-14,1.4-22.9.3-6.7.5-14.6.7-23.7.2-9.1.2-18.9.2-29.4v-28.5c0-3.1,0-6.9-.2-11.5-.5-4.5-1.6-8.2-3.3-11.1-1.7-2.9-3.7-5.1-6.1-6.8-2.3-1.6-4.9-2.8-7.6-3.5-2.7-.7-5.3-1.2-7.8-1.5v-2.3h47.5l110.9,129.6v-79.5c0-6.2,0-12.2-.2-17.9-.2-5.7-.9-10.2-2.1-13.5-1.6-4.4-4.3-7.9-8.3-10.6-4-2.7-9.7-4.6-17.2-5.7v-2.3h58v2.3c-5.8.8-10.4,2.3-13.9,4.4h0Z"/>
  <path class="st0" d="M889.4,477.8c-3,1.9-4.8,3.1-5.3,3.7-.5.5-1.1,1.2-2,2.2-.9,1-1.8,2.5-2.9,4.4-1.1,2-2.4,4.4-3.9,7.4-1.5,3-3.2,6.7-5,11.2-3.1,7.5-6.5,15.9-10.3,25.1-3.7,9.3-7.6,18.8-11.5,28.7-3.9,9.8-7.8,19.7-11.6,29.6-3.8,9.9-7.4,19.3-10.9,28.2l-11.5,23.4h-2.8c-5.1-12.6-9.9-24.7-14.4-36.1-4.4-11.5-8.8-22.5-13-33.1-4.2-10.6-8.3-20.9-12.2-30.8-3.9-9.9-7.8-19.8-11.7-29.8-1.1-3-2.1-5.5-3-7.7-.9-2.2-1.8-4.2-2.7-6.1-.9-1.9-1.7-3.7-2.6-5.4-.9-1.7-1.8-3.5-2.7-5.4-.5-.9-1.2-2.1-2.1-3.5-.9-1.4-2.2-2.8-3.9-4.2-1.6-1.4-3.6-2.6-6-3.6-2.3-1-5.3-1.6-8.9-1.8v-2.6h69.9v2.3c-.8.2-2.2.4-4.2.7-2,.3-4.1.9-6.2,1.8-2.1.9-4,2.1-5.6,3.6-1.6,1.6-2.5,3.5-2.5,5.8s.9,4.7,2.6,9.9c1.7,5.2,3.9,11.5,6.7,18.9,2.7,7.4,5.8,15.5,9.2,24.3,3.4,8.8,6.8,17.5,10.2,26,3.4,8.5,6.5,16.4,9.5,23.7,3,7.3,5.3,13.3,7,18,.8-1.7,2.2-5.3,4.3-10.8,2.1-5.5,4.8-12.2,8-20.4,3.2-8.1,6.7-17.3,10.6-27.6,3.9-10.3,8-21.1,12.2-32.3,3.1-8.6,5.1-15.1,6.1-19.5.9-4.4,1.4-7.5,1.4-9.2s-.8-4.3-2.3-5.8c-1.6-1.6-3.5-2.8-5.8-3.9-2.3-1-4.8-1.8-7.4-2.3-2.6-.5-4.9-.9-6.9-1.1v-2.3h54.5v2.6c-4.1.5-7.6,1.6-10.6,3.5h0Z"/>
  <path class="st0" d="M898.7,640.2v-2.3c3.9-.6,7.5-1.6,10.9-3,3.4-1.4,6.2-3.4,8.5-6.1.8-.9,1.4-2.3,1.8-4,.4-1.7.7-3.7.9-6.1.2-2.3.4-4.8.5-7.4,0-2.6.1-5.1.1-7.6s0-5.1.1-8.9c0-3.7.2-7.8.2-12.3,0-4.4.1-9,.1-13.7v-67.6c0-2.8-.1-5.4-.4-7.8-.2-2.4-.6-4.6-1.1-6.5-.5-1.9-1.2-3.5-2.1-4.6-2.2-2.6-4.9-4.6-8.1-5.7-3.2-1.2-6.8-2-10.9-2.5v-2.3h69.9v2.3c-3.3.5-6.8,1.3-10.5,2.6-3.7,1.3-6.6,3.7-8.7,7.5-1.4,2.7-2.1,6-2.2,10.1,0,4.1-.2,7.9-.4,11.5,0,3.9,0,7.8-.1,11.6,0,3.8-.1,7.7-.1,11.6v78.4c0,4.5,0,8.9.2,13.1.2,4.2.9,7.2,2.1,8.9,1.9,2.7,4.8,4.7,8.9,6.1,4.1,1.4,7.7,2.3,11,2.6v2.3h-70.9Z"/>
  <path class="st0" d="M1289.8,640.2v-2.3c3.9-.6,7.5-1.6,10.9-3,3.4-1.4,6.2-3.4,8.5-6.1.8-.9,1.4-2.3,1.8-4,.4-1.7.7-3.7.9-6.1.2-2.3.4-4.8.5-7.4,0-2.6.1-5.1.1-7.6s0-5.1.1-8.9c0-3.7.2-7.8.2-12.3,0-4.4.1-9,.1-13.7v-67.6c0-2.8-.1-5.4-.4-7.8-.2-2.4-.6-4.6-1.1-6.5-.5-1.9-1.2-3.5-2.1-4.6-2.2-2.6-4.9-4.6-8.1-5.7-3.2-1.2-6.8-2-10.9-2.5v-2.3h69.9v2.3c-3.3.5-6.8,1.3-10.5,2.6-3.7,1.3-6.6,3.7-8.7,7.5-1.4,2.7-2.1,6-2.2,10.1,0,4.1-.2,7.9-.4,11.5,0,3.9,0,7.8-.1,11.6,0,3.8-.1,7.7-.1,11.6v78.4c0,4.5,0,8.9.2,13.1.2,4.2.9,7.2,2.1,8.9,1.9,2.7,4.8,4.7,8.9,6.1,4.1,1.4,7.7,2.3,11,2.6v2.3h-70.9Z"/>
  <path class="st0" d="M1528.4,589.4c-4.7,10.6-11,19.8-19.1,27.6-8,7.8-17.4,13.8-28.1,18-10.7,4.2-22,6.3-34,6.3s-23.1-2.1-33.7-6.2c-10.6-4.1-19.9-10-27.8-17.5-8-7.6-14.2-16.6-18.8-27.1-4.6-10.5-6.9-22.1-6.9-34.7s2.4-25.5,7.3-36.1c4.8-10.7,11.3-19.7,19.5-27.1,8.2-7.4,17.8-13.1,28.8-17.1,11-4,22.6-6,34.7-6s25.1,2.3,35.7,7c10.5,4.7,19.5,11,26.8,18.8,7.3,7.9,12.9,17,16.8,27.3,3.9,10.3,5.8,21.1,5.8,32.3s-2.3,24-7,34.6h0ZM1502.8,526.3c-2.4-9.7-6.1-18.4-11-26.3-4.9-7.9-11-14.3-18.4-19.2-7.3-4.9-16-7.4-26-7.4s-18.9,2.5-26.3,7.4c-7.4,4.9-13.5,11.3-18.2,19.1-4.8,7.8-8.3,16.6-10.5,26.6-2.3,9.9-3.4,19.9-3.4,30.1s1.2,20.8,3.7,30.6c2.5,9.8,6.2,18.5,11.1,26,4.9,7.5,11.1,13.5,18.5,18,7.4,4.5,16,6.8,25.8,6.8s18.4-2.5,25.6-7.5c7.3-5,13.3-11.4,18.1-19.3,4.8-7.9,8.5-16.7,10.9-26.6,2.4-9.8,3.6-19.6,3.6-29.5s-1.2-19.1-3.6-28.8Z"/>
  <path class="st0" d="M1702.8,478.5c-3.5,2.2-6.2,5.5-8.1,10.1-1.1,2.3-1.8,6.7-2.1,13-.3,6.3-.6,13.1-.9,20.2-.3,6.7-.6,14.6-.8,23.7-.2,9.1-.4,18.9-.4,29.4v15c0,5.5,0,11,.1,16.7,0,5.7.1,11.3.1,17v15.2c0,.6-.2,1.1-.6,1.5-.4.4-1,.6-1.8.6-1.2,0-2.7-.8-4.2-2.3-13.3-15.3-25.3-29.3-36.3-42.1-10.9-12.8-21.3-25-31.2-36.6-9.9-11.6-19.6-23-29.1-34-9.5-11.1-19.6-22.5-30.2-34.4v98.7c0,8,.2,15.1.6,21.5.4,6.4,1.4,11.2,2.9,14.3,1.7,3.6,4.4,6.3,8.1,8.1,3.7,1.8,8.7,3.1,15.1,3.9v2.3h-57.5v-2.3c3.7-.5,7.5-1.4,11.2-2.9,3.7-1.5,6.7-3.9,8.9-7.4,2.2-3.3,3.6-8.1,4.2-14.5.6-6.4,1.1-14,1.4-22.9.3-6.7.5-14.6.7-23.7.2-9.1.2-18.9.2-29.4v-28.5c0-3.1,0-6.9-.2-11.5-.5-4.5-1.6-8.2-3.3-11.1-1.7-2.9-3.7-5.1-6.1-6.8-2.3-1.6-4.9-2.8-7.6-3.5-2.7-.7-5.3-1.2-7.8-1.5v-2.3h47.5l110.9,129.6v-79.5c0-6.2,0-12.2-.2-17.9-.2-5.7-.9-10.2-2.1-13.5-1.6-4.4-4.3-7.9-8.3-10.6-4-2.7-9.7-4.6-17.2-5.7v-2.3h58v2.3c-5.8.8-10.4,2.3-13.9,4.4h0Z"/>
  <path class="st0" d="M1284.9,469.4c-3.6,1.1-7.1,2-10.4,2.7-3.4.7-7.6,1.1-12.7,1.3-5.9,0-11.2,0-15.9.1-4.7,0-9.2.2-13.6.2-4.4,0-8.9.1-13.6.1h-28.5c-1.1,0-2.1,0-2.5.1-7.3.2-14.1.7-20.3,1.4-8.9,1-16.9,2.3-23.9,4-7,1.6-13.1,3.5-18.4,5.5-2.4.9-4.6,1.9-6.7,2.8-1.7.7-3.3,1.2-4.9,1.2-1.9,0-4.1-.8-5.7-2.2-2.5-2-4.8-4-7.6-5.9-3.2-2.3-6.9-4.4-11.2-6.2-4.2-1.8-9.1-3.3-14.5-4.5-3.8-.8-7.9-1.3-12.3-1.6-.7,0-3.8-.1-5.1-.1-10.4,0-19.4,1.1-27.6,3.3-8.3,2.2-15.7,5.1-22.2,8.8-6.5,3.7-12.2,7.9-17.1,12.7s-8.9,9.9-12.2,15.2c-2.8,4.5-5.1,9-6.9,13.5-1.8,4.4-3.2,8.7-4.2,12.7-1,4.1-1.7,7.9-2.1,11.5-.4,3.6-.6,6.8-.6,9.6,0,12.6,2.2,24.2,6.5,34.7,4.4,10.5,10.6,19.6,18.8,27.1,8.2,7.6,18.1,13.4,29.8,17.5,11.7,4.1,24.8,6.2,39.3,6.2s16.5-.7,23.2-2.2c6.7-1.5,12.4-3.2,17.1-5.1,4.7-1.9,8.3-3.7,10.8-5.4,2.5-1.6,3.9-2.5,4.2-2.5.8,0,2.2,1.1,4.2,3.3,2,2.2,4,4.6,5.8,7.3h2.8l.7-51.5h-2.8c-1.4,6.7-4,13.2-7.8,19.5-3.8,6.3-8.5,11.9-14,16.7-5.5,4.8-11.9,8.7-18.9,11.7-7.1,3-14.7,4.4-22.8,4.4s-19.6-2.1-28.1-6.3c-8.4-4.2-15.6-9.9-21.5-17.2-5.9-7.3-10.5-15.8-13.7-25.6-3.2-9.8-4.8-20.4-4.8-31.6s1.5-20.9,4.6-31c3-10.1,7.4-19.1,13.1-27,5.7-8,12.7-14.3,21.2-19.2,7.5-4.3,14.2-7.1,25.3-7.1s12.1,1.4,17.3,4c5.4,2.7,10.2,6.2,14.5,10.5,4.2,4.3,8,9.2,11.2,14.7,3.2,5.5,5.8,11.1,7.9,16.6h4c3.3-5,7.7-9.5,13-14.4,5.3-4.9,11.5-9.2,18.4-13.1,7-3.8,14.9-7,23.9-9.4,7-1.9,14.6-3,22.8-3.4v90.6c0,4.7,0,9.2-.1,13.6,0,4.4-.2,8.3-.2,11.9,0,3.6-.1,6.5-.1,8.7s0,5.1-.1,7.7c0,2.7-.2,5.1-.5,7.4-.2,2.3-.5,4.3-.9,6.1-.4,1.8-1,3.1-1.8,3.9-3.6,4.1-7.3,6.6-11,7.7-3.7,1.1-7.6,1.9-11.7,2.3v2.3h76v-2.3c-3.4-.6-7.3-1.6-11.6-2.8-4.3-1.2-7.6-3.6-9.9-7-1.3-1.7-2-4.6-2.2-8.8-.2-4.1-.4-8.5-.4-13v-91.5c0-7.3,0-14.3.1-21.1,0-6.7.1-12,.1-15.9h15.4c2.2,0,4.4,0,6.5.1,2.2,0,4.8.1,7.7.1,5.9.2,10.8.7,14.6,1.8,3.8,1,7.4,3.1,10.6,6.2,1.2,1.1,2.7,2.8,4.4,5,1.7,2.3,3.5,4.7,5.3,7.4,1.8,2.7,3.5,5.5,5.3,8.5,1.7,3,3.2,6,4.4,8.8l2.1-.7-7.5-45.6h0Z"/>
  <path class="st0" d="M530.1,776.7h12.6v55.7h-8.5v-30c0-1.1,0-2.5,0-4.1,0-1.6,0-3.3,0-5.1,0-1.8,0-3.6.1-5.4,0-1,0-2,0-2.9-.3,1.1-.6,2.2-1,3.3-.6,1.9-1.2,3.8-1.7,5.6s-1.1,3.4-1.6,4.9c-.5,1.5-.9,2.7-1.3,3.7l-11.4,30h-7.3l-11.5-30c-.4-.9-.8-2.1-1.3-3.6-.5-1.5-1-3.1-1.6-4.9-.6-1.8-1.2-3.6-1.8-5.6-.3-1-.6-2.1-1-3.1,0,.7,0,1.5,0,2.3,0,1.8,0,3.6.1,5.4,0,1.8,0,3.5.1,5.2,0,1.6,0,3.1,0,4.3v30h-8.3v-55.7h12.6l12.1,32c.3.9.7,2.1,1.2,3.6.4,1.4.9,3,1.4,4.7.5,1.7.9,3.4,1.3,5,0,.3.2.6.2.9,0-.3.1-.5.2-.8.4-1.6.9-3.3,1.3-5,.5-1.7.9-3.3,1.4-4.8.4-1.5.8-2.7,1.2-3.7l12-32h0ZM603.9,776.7l20.2,55.7h-9.2l-5.1-14.7h-21.9l-5,14.7h-9.2l19.8-55.7h10.5ZM604.1,801.4c-.8-2.5-1.8-5.5-2.8-8.9-.8-2.6-1.7-5.7-2.6-9.1-.9,3.5-1.8,6.6-2.6,9.3-1,3.5-1.9,6.4-2.7,8.8l-3.1,9.2h17l-3.2-9.2h0ZM684.1,809.9l12.3,22.5h-9.7l-11.3-21.1c-.2,0-.3,0-.5,0h-11.4v21h-8.5v-55.7h20c4.3,0,7.9.7,10.7,2.2,2.9,1.5,5,3.5,6.4,6.2,1.4,2.6,2.1,5.7,2.1,9.1s-.7,6.4-2.1,9c-1.4,2.6-3.6,4.6-6.4,6-.5.2-1,.4-1.6.6h0ZM663.6,804.1h10.5c2.7,0,5-.4,6.6-1.2,1.7-.8,2.9-1.9,3.7-3.4.8-1.5,1.2-3.2,1.2-5.3s-.4-3.9-1.2-5.4c-.8-1.5-2-2.7-3.7-3.5-1.7-.8-3.9-1.3-6.7-1.3h-10.5v20.1h0ZM1584.4,776.7l20.2,55.7h-9.2l-5.1-14.7h-21.9l-5,14.7h-9.2l19.8-55.7h10.5ZM1584.5,801.4c-.8-2.5-1.8-5.5-2.8-8.9-.8-2.6-1.7-5.7-2.6-9.1-.9,3.5-1.8,6.6-2.6,9.3-1,3.5-1.9,6.4-2.7,8.8l-3.1,9.2h17l-3.2-9.2h0ZM284.7,789.6c2.1,4.1,3.1,9.1,3.1,14.9s-1.1,10.8-3.2,14.9c-2.1,4.2-5.2,7.4-9.2,9.6-4,2.2-8.8,3.4-14.5,3.4h-18.1v-55.7h18.6c5.5,0,10.2,1.1,14.1,3.3,3.9,2.2,6.9,5.4,9,9.5h0ZM279.4,804.5c0-4.4-.7-8-2.1-11.1-1.4-3-3.4-5.3-6.2-6.9-2.7-1.6-6.1-2.4-10.2-2.4h-9.6v40.7h9.1c4.2,0,7.7-.8,10.5-2.4,2.8-1.6,4.9-3.9,6.3-6.9,1.4-3.1,2.1-6.8,2.1-11.2ZM399.6,822c-1.5,0-2.9.5-3.9,1.6-1.1,1.1-1.6,2.3-1.6,3.9s.5,2.9,1.6,3.9c1.1,1.1,2.4,1.6,3.9,1.6s2.8-.5,3.9-1.6c1.1-1.1,1.6-2.4,1.6-3.9s-.5-2.8-1.6-3.9c-1.1-1.1-2.4-1.6-3.9-1.6ZM1667.2,832.4l-11.3-21.1c-.2,0-.3,0-.5,0h-11.4v21h-8.5v-55.7h20c4.3,0,7.9.7,10.7,2.2,2.9,1.5,5,3.5,6.4,6.2,1.4,2.6,2.1,5.7,2.1,9.1s-.7,6.4-2.1,9c-1.4,2.6-3.6,4.6-6.4,6-.5.2-1,.4-1.6.6l12.3,22.5h-9.7ZM1644.1,804.1h10.5c2.7,0,5-.4,6.6-1.2,1.7-.8,2.9-1.9,3.7-3.4.8-1.5,1.2-3.2,1.2-5.3s-.4-3.9-1.2-5.4c-.8-1.5-2-2.7-3.7-3.5-1.7-.8-3.9-1.3-6.7-1.3h-10.5v20.1h0ZM350,809.9l12.3,22.5h-9.7l-11.3-21.1c-.2,0-.3,0-.5,0h-11.4v21h-8.5v-55.7h20c4.3,0,7.9.7,10.7,2.2,2.9,1.5,5,3.5,6.4,6.2,1.4,2.6,2.1,5.7,2.1,9.1s-.7,6.4-2.1,9c-1.4,2.6-3.6,4.6-6.4,6-.5.2-1,.4-1.6.6h0ZM329.4,804.1h10.5c2.7,0,5-.4,6.6-1.2,1.7-.8,2.9-1.9,3.7-3.4.8-1.5,1.2-3.2,1.2-5.3s-.4-3.9-1.2-5.4c-.8-1.5-2-2.7-3.7-3.5-1.7-.8-3.9-1.3-6.7-1.3h-10.5v20.1ZM1168.7,807.9h24.6v-7.3h-24.6v-16.6h26.5v-7.3h-35.1v55.7h35.3v-7.3h-26.8v-17.2ZM1379.2,806.1c-1.6-1.2-3.3-2.2-5.2-3-1.9-.8-3.7-1.4-5.5-1.8l-5.4-1.4c-1.4-.4-2.9-.9-4.5-1.5-1.6-.6-2.9-1.5-4-2.6-1.1-1.1-1.6-2.5-1.6-4.3s.5-3,1.4-4.2c.9-1.2,2.2-2.2,3.8-2.9,1.7-.7,3.6-1,5.8-1s5.8.7,7.9,2.1c2.1,1.4,3.3,3.4,3.5,5.9h8.3c0-3-.9-5.6-2.6-7.9-1.7-2.3-3.9-4.1-6.8-5.5-2.9-1.3-6.3-2-10.1-2s-7.1.7-10.1,2c-3,1.3-5.3,3.2-7.1,5.6-1.7,2.4-2.6,5.2-2.6,8.4s1.3,6.9,3.8,9.3c2.6,2.4,6.1,4.2,10.7,5.4l6.5,1.8c2,.5,3.8,1.1,5.4,1.8,1.6.7,2.8,1.5,3.8,2.6.9,1,1.4,2.4,1.4,4s-.5,3.4-1.6,4.7c-1.1,1.4-2.5,2.4-4.4,3.1-1.8.7-3.9,1.1-6.3,1.1s-4.1-.3-5.9-1c-1.8-.6-3.3-1.6-4.4-3-1.1-1.3-1.8-3-2-5h-8.6c.2,3.4,1.1,6.3,2.9,8.8,1.7,2.5,4.1,4.3,7.2,5.7,3.1,1.3,6.7,2,10.8,2s8.1-.7,11.2-2.1c3.1-1.4,5.4-3.3,7-5.8,1.6-2.5,2.4-5.3,2.4-8.4s-.5-4.7-1.5-6.4c-1-1.8-2.3-3.3-3.9-4.5h0ZM1129,776.7h-10.8l-15.6,17.3c-1.5,1.7-2.9,3.3-4.2,4.9-1.3,1.6-2.6,3.2-3.8,4.9-.4.6-.9,1.2-1.3,1.8v-11.1c.1,0,.1-17.8.1-17.8h-8.5v55.7h8.5v-17.5l7.8-8.4,18,25.8h10.1l-22.1-31.6,21.9-24.1h0ZM1300.7,798.6h6l6.2-21.9h-8.9l-3.3,21.9ZM750.4,794.5c-1.1,1.9-2.1,3.7-3,5.5-.5.9-.9,2-1.4,3.2-.5-1.1-.9-2.2-1.4-3.1-.9-1.8-1.9-3.7-3.1-5.6l-10.5-17.8h-9.9l20.5,33.5v22.2h8.5v-22.2l20.4-33.5h-9.9l-10.4,17.8h0ZM1257.1,809.9l12.3,22.5h-9.7l-11.3-21.1c-.2,0-.3,0-.5,0h-11.4v21h-8.5v-55.7h20c4.3,0,7.9.7,10.7,2.2,2.9,1.5,5,3.5,6.4,6.2,1.4,2.6,2.1,5.7,2.1,9.1s-.7,6.4-2.1,9c-1.4,2.6-3.6,4.6-6.4,6-.5.2-1,.4-1.6.6h0ZM1236.5,804.1h10.5c2.7,0,5-.4,6.6-1.2,1.7-.8,2.9-1.9,3.7-3.4.8-1.5,1.2-3.2,1.2-5.3s-.4-3.9-1.2-5.4c-.8-1.5-2-2.7-3.7-3.5-1.7-.8-3.9-1.3-6.7-1.3h-10.5v20.1ZM1028.1,776.7h-8.5v55.7h33.7v-7.3h-25.2v-48.4ZM1514.1,808.7c-.4,2-.9,4-1.4,6.1-.5,2.1-.9,4.3-1.3,6.4-.2,1-.4,2-.5,2.9-.2-1-.4-2-.6-2.9-.4-2.2-.9-4.3-1.3-6.4-.4-2.1-.9-4.2-1.5-6.1l-8.2-31.9h-9.3l-8.3,31.9c-.5,2-1,4-1.5,6.1-.4,2.1-.9,4.3-1.3,6.4-.2,1-.4,2-.6,3.1-.2-1-.4-2-.6-3.1-.4-2.2-.8-4.3-1.3-6.4-.4-2.1-.9-4.2-1.4-6.1l-8-31.9h-9l15.1,55.7h9.9l8.8-33c.8-2.9,1.4-5.8,1.9-8.8.2-1.3.5-2.7.7-4.1.3,1.5.5,3,.8,4.4.6,3,1.2,5.9,1.9,8.4l8.9,33h9.8l15.2-55.7h-9l-8,31.9h0ZM898.1,808.7c-.4,2-.9,4-1.4,6.1-.5,2.1-.9,4.3-1.3,6.4-.2,1-.4,2-.5,2.9-.2-1-.4-2-.6-2.9-.4-2.2-.9-4.3-1.3-6.4-.4-2.1-.9-4.2-1.5-6.1l-8.2-31.9h-9.3l-8.3,31.9c-.5,2-1,4-1.5,6.1-.4,2.1-.9,4.3-1.3,6.4-.2,1-.4,2-.6,3.1-.2-1-.4-2-.6-3.1-.4-2.2-.8-4.3-1.3-6.4-.4-2.1-.9-4.2-1.4-6.1l-8-31.9h-9l15.1,55.7h9.9l8.8-33c.8-2.9,1.4-5.8,1.9-8.8.2-1.3.5-2.7.7-4.1.3,1.5.5,3,.8,4.4.6,3,1.2,5.9,1.9,8.4l8.9,33h9.8l15.2-55.7h-9l-8,31.9h0ZM968.4,776.7l20.2,55.7h-9.2l-5.1-14.7h-21.9l-5,14.7h-9.2l19.8-55.7h10.5ZM968.6,801.4c-.8-2.5-1.8-5.5-2.8-8.9-.8-2.6-1.7-5.7-2.6-9.1-.9,3.5-1.8,6.6-2.6,9.3-1,3.5-1.9,6.4-2.7,8.8l-3.1,9.2h17l-3.2-9.2h0Z"/>
</svg>